<?xml version="1.0" encoding="utf-8"?>
<!-- Generator: Adobe Illustrator 24.0.2, SVG Export Plug-In . SVG Version: 6.00 Build 0)  -->
<svg version="1.1" id="Layer_1" xmlns="http://www.w3.org/2000/svg" xmlns:xlink="http://www.w3.org/1999/xlink" x="0px" y="0px"
	 viewBox="0 0 120 120" style="enable-background:new 0 0 120 120;" xml:space="preserve">
<style type="text/css">
	.st0{fill:#063F5C;}
	.st1{fill:#FFFFFF;}
</style>
<path class="st0" d="M0,59.9C0,26.5,26.6,0,60.2,0c32.7,0,59.7,27.1,59.7,60.1C120,92.8,92.8,120,60,120C26.7,120,0,93.3,0,59.9z
	 M59,29c-4.5,0-9,0-13.5,0c-10.5,0-18,7-18.3,17.6c-0.3,9.3-0.3,18.7,0,28c0.2,10.1,7.4,17.4,17.2,17.7s19.7,0.3,29.5-0.1
	c9.9-0.3,16.9-7.8,17.1-17.8c0.2-9.3,0.2-18.7,0-28C90.7,36.3,83,29,73,29C68.3,29,63.6,29,59,29z"/>
<path class="st1" d="M59,29c4.7,0,9.3,0,14,0c10.1,0.1,17.7,7.4,18,17.5c0.2,9.3,0.2,18.7,0,28c-0.2,10-7.2,17.4-17.1,17.8
	c-9.8,0.3-19.7,0.3-29.5,0.1c-9.9-0.3-17-7.6-17.2-17.7c-0.2-9.3-0.2-18.7,0-28C27.5,36,35,29,45.5,29C50,29,54.5,29,59,29z
	 M59,86.2L59,86.2c4.5,0,9,0,13.5-0.1c7.6-0.2,12.2-4.5,12.4-12c0.2-9,0.2-18,0-27C84.7,39.9,79.6,35,72.4,35c-8.8,0-17.7,0-26.5,0
	c-7.4,0-12.3,4.5-12.6,11.9c-0.3,9.2-0.3,18.3,0,27.5c0.2,7.2,5,11.6,12.2,11.8C50,86.3,54.5,86.2,59,86.2z"/>
<path class="st0" d="M59,86.2c-4.5,0-9,0.1-13.5,0c-7.2-0.2-11.9-4.5-12.2-11.8C33,65.3,33,56.1,33.3,47c0.3-7.5,5.2-11.9,12.6-11.9
	c8.8-0.1,17.7-0.1,26.5,0c7.2,0,12.3,4.9,12.5,12.1c0.2,9,0.2,18,0,27c-0.2,7.6-4.8,11.8-12.4,12C68,86.3,63.5,86.2,59,86.2L59,86.2
	z M60.4,77c9.2,0.1,16.6-7.2,16.7-16.3c0.1-8.9-7.5-16.6-16.3-16.8c-8.8,0-16.7,7.7-16.8,16.5C43.9,69.3,51.4,77,60.4,77z
	 M78.1,39.3c-0.6,0-1.3,0.1-1.9,0.1c-0.8,1.5-2.4,3.2-2.1,4.4c0.3,1.4,2.4,2.4,3.7,3.6c1.1-1.3,3.1-2.6,3.2-4
	C81,42.1,79.1,40.7,78.1,39.3z"/>
<path class="st1" d="M60.4,77c-9-0.1-16.5-7.7-16.4-16.6c0.1-8.8,8-16.6,16.7-16.4c8.8,0.1,16.4,7.9,16.3,16.8
	C76.9,69.8,69.5,77.1,60.4,77z M71,60.4C71,54.5,66.4,50,60.6,50c-6,0-10.6,4.6-10.6,10.8c0.1,5.9,4.5,10.3,10.5,10.3
	C66.7,71.1,71.1,66.7,71,60.4z"/>
<path class="st1" d="M78.1,39.3c1,1.4,2.9,2.8,2.8,4.1c-0.1,1.4-2,2.7-3.2,4c-1.3-1.2-3.3-2.2-3.7-3.6c-0.3-1.2,1.3-2.9,2.1-4.4
	C76.8,39.4,77.5,39.3,78.1,39.3z"/>
<path class="st0" d="M71,60.4c0.1,6.3-4.3,10.7-10.5,10.7c-5.9,0-10.4-4.4-10.5-10.3C49.9,54.6,54.5,50,60.6,50
	C66.4,50,71,54.5,71,60.4z"/>
<g>
	<g>
		<path class="st1" d="M-565-183.2h-26.2c-2.9,0-5.5,0.6-7.6,1.8c-1.3-7.3-4.7-13.1-10.1-17.2c3.8-2.5,6.1-6.8,6.1-12.3v-15.4
			c0-8.8-5.9-14.7-14.7-14.7h-36.3c-15.2,0-26.6,5.6-32.4,15.4v-0.8c0-8.8-5.9-14.7-14.7-14.7h-19.5c-8.8,0-14.7,5.9-14.7,14.7v1
			l-7.6-8.7c-4.1-4.8-8.9-7-15.2-7h-13.5c-8.8,0-14.7,5.9-14.7,14.7v33.2c-2.6-2.5-6.2-3.9-10.5-3.9h-2.4c5.3-2.1,8.7-7,8.7-13.6
			v-15.7c0-8.8-5.9-14.7-14.7-14.7h-32.4c-19.9,0-30.8,6.6-36.4,15.3v-0.6c0-8.8-5.9-14.7-14.7-14.7h-55.2c-6,0-10.7,2.8-13,7.4
			c-2.3-4.6-7-7.4-13-7.4h-36.3c-22.7,0-36.8,12.6-36.8,32.8v13.6c0,10.1,3.1,17.9,9.1,23.3c-5.6,2-9.1,7-9.1,13.8v15.2
			c0,8.8,5.9,14.7,14.7,14.7h41c12.8,0,22.9-4,29.3-11.1c1.4,6.8,6.8,11.1,14.3,11.1h55.2c8.8,0,14.7-5.9,14.7-14.7v-0.6
			c5.6,8.7,16.5,15.3,36.4,15.3h40.9c5.7,0,10.1-2.5,12.6-6.6c2.5,4.1,6.9,6.6,12.6,6.6h19.5c8.8,0,14.7-5.9,14.7-14.7v-15l2.2,2.6
			v12.4c0,8.8,5.9,14.7,14.7,14.7h19.5c5.6,0,10-2.4,12.4-6.4c2.5,4,6.9,6.4,12.4,6.4h41c14.3,0,25.1-5,31.3-13.7
			c0.2,0.3,0.4,0.6,0.6,0.9c-0.7,1.8-1,3.7-1,5.9v5.2c0,8.8,5.9,14.7,14.7,14.7h10c17.7,0,29.2-11.6,29.2-29.6v-24.4
			C-550.3-177.3-556.2-183.2-565-183.2z M-940.8-172.3h-2.8c-2.5,0-4.8,0.5-6.7,1.4v-3.1c0-11-3.6-19.2-10.7-24.6
			c1.8-1.2,3.3-2.9,4.3-4.9c2.3,4.7,7,7.5,13.1,7.5h2.8V-172.3z M-891-172.3v-23.6h2.6c3.6,0,6.8-1,9.2-2.8v29.2
			c-2.4-1.8-5.6-2.8-9.2-2.8H-891z M-829.8-189.2l0-6.7h7.2C-825.8-194.6-828.3-192.3-829.8-189.2z M-686.2-168.3v-8.3
			c1.3,2.1,2.8,3.9,4.7,5.6C-683.3-170.5-684.9-169.5-686.2-168.3z"/>
		<path class="st1" d="M182.7-198.5c3.8-2.5,6.1-6.8,6.1-12.3v-15.4c0-8.8-5.9-14.7-14.7-14.7h-36.3c-13,0-23.1,4.1-29.5,11.4
			c-1.3-6.9-6.7-11.4-14.4-11.4H62.3c-19.9,0-30.8,6.6-36.4,15.4v-0.7c0-8.8-5.9-14.7-14.7-14.7h-55.2c-5.7,0-10.1,2.5-12.6,6.6
			c-2.5-4.1-6.9-6.6-12.6-6.6h-20.1c-8.8,0-14.7,5.9-14.7,14.7v18.1h-1.7v-18.1c0-8.8-5.9-14.7-14.7-14.7h-20.1
			c-8.3,0-14,5.2-14.6,13.2c-5.7-7.6-16.1-13.2-34.2-13.2h-39.7c-8.8,0-14.7,5.9-14.7,14.7v30c-0.5-1.5-1.1-3-1.7-4.5l-11.2-29.3
			c-2.5-6.9-8.2-10.8-15.9-10.8h-34.9c-7.7,0-13.5,3.9-16,10.8l-11.2,29.3c-1.8,4.8-3.2,8.9-4.1,12.7c-1.2-1.6-2.6-3-4.1-4.3
			c1-3.2,1.5-6.8,1.5-10.9v-6c0-11.8-4.6-31.7-35.5-31.7h-43.2c-8.8,0-14.7,5.9-14.7,14.7v33.2c-2.6-2.5-6.2-3.9-10.5-3.9h-2.4
			c5.3-2.1,8.7-7,8.7-13.6v-15.7c0-8.8-5.9-14.7-14.7-14.7h-32.4c-34.6,0-41.9,19.8-41.9,36.5v40.5c0,16.6,7.3,36.5,41.9,36.5h40.9
			c5.7,0,10.1-2.5,12.6-6.6c2.5,4.1,6.9,6.6,12.6,6.6h20c8.8,0,14.7-5.9,14.7-14.7v-15.4h3.1v15.4c0,8.8,5.9,14.7,14.7,14.7h20.1
			c4.6,0,8.4-1.6,11-4.4c2.6,2.8,6.4,4.4,11,4.4h19.1c8.8,0,14.7-5.9,14.7-14.7v-8.2h3v8.2c0,8.8,6.1,14.7,15.1,14.7h19.6
			c5.7,0,10.2-2.5,12.6-6.7c2.4,4.2,6.9,6.7,12.6,6.7h20.1c8.8,0,14.7-5.9,14.7-14.7v-11.5h4.9c18,0,28.3-5.5,34.1-13.1v24.6
			c0,8.8,5.9,14.7,14.7,14.7h20.1c8.8,0,14.7-5.9,14.7-14.7v-18.8h1.7v18.8c0,8.8,5.9,14.7,14.7,14.7h20.1c5.7,0,10.1-2.5,12.6-6.6
			c2.5,4.1,6.9,6.6,12.6,6.6h55.2c8.8,0,14.7-5.9,14.7-14.7v-0.6c5.6,8.7,16.5,15.3,36.4,15.3h31.6c4.5,0,8.2-1.6,10.8-4.3
			c2.6,2.7,6.3,4.3,10.8,4.3h41c22.7,0,36.8-12.6,36.8-32.8v-13.6C193.4-184.9,189.8-193.1,182.7-198.5z M-478.3-189.2l0-6.7h7.2
			C-474.4-194.6-476.9-192.3-478.3-189.2z M-41.2-172.3h-2.8c-4.3,0-7.9,1.4-10.5,3.9v-31.4c2.6,2.5,6.2,3.9,10.5,3.9h2.8V-172.3z
			 M8.6-172.3v-23.6h2.6c3.6,0,6.8-1,9.2-2.8v29.2c-2.4-1.8-5.6-2.8-9.2-2.8H8.6z M104.9-167.9c-2.6-2.8-6.4-4.4-10.9-4.4h-24
			l0-23.6h24c2.6,0,5-0.5,7-1.5v2.9c0,10.1,3.1,17.9,9.1,23.3C108-170.4,106.3-169.3,104.9-167.9z"/>
		<path class="st1" d="M309.3-199.5h-16.5c3.4-2.6,5.4-6.7,5.4-11.8v-14.9c0-8.8-5.9-14.7-14.7-14.7h-27.4
			c-25.7,0-34.9,15.4-34.9,29.8v6.2c0,4,0.6,7.4,1.6,10.2c-6.4,5.4-10.3,13.8-10.3,23.9v10.4c0,19.9,13.5,32.8,34.5,32.8h36.1
			c19.2,0,32-11.7,33.1-30.1c4.8-2.3,7.7-7,7.7-13.2v-14C324-193.6,318.1-199.5,309.3-199.5z"/>
		<path class="st1" d="M627.4-195.2c0.9-2.7,1.4-5.9,1.4-9.6v-6.2c0-11.1-4.5-29.8-34.9-29.8h-41.4c-5.5,0-9.8,2.3-12.3,6.1
			c-2.5-3.8-6.9-6.1-12.3-6.1h-60.2c-6,0-10.7,2.8-13,7.4c-2.3-4.6-7-7.4-13-7.4h-19.3c-8.8,0-14.7,5.9-14.7,14.7v17.8
			c-1.3-0.3-2.8-0.4-4.4-0.4h-5.4c-1.6,0-3.1,0.2-4.4,0.4v-17.8c0-8.8-5.9-14.7-14.7-14.7h-20c-8.8,0-14.7,5.9-14.7,14.7v50.1
			c0,5.9,0,11.5,2.9,19.5l6.4,17.8c2.4,7,8.2,11.4,15.1,11.4h17.1c6.6,0,11.9-3.5,14.4-9.3c2.4,5.8,8,9.3,14.9,9.3h17.2
			c6.6,0,12.1-4.2,14.6-11.3l6.1-16.7v13.3c0,8.8,5.9,14.7,14.7,14.7h60.2c5.5,0,9.8-2.3,12.3-6.1c2.5,3.8,6.9,6.1,12.3,6.1h49.8
			c30.6,0,35.2-19.6,35.2-31.3v-11.9C637.4-183.4,633-190.9,627.4-195.2z M531.3-196.7c2.5-0.5,4.7-1.6,6.5-3.1v31.2
			c-1.9-1.6-4.2-2.7-6.9-3.2c0.7-1.8,1.1-3.8,1.1-6.1v-13.9C532-193.5,531.8-195.2,531.3-196.7z"/>
		<path class="st1" d="M1182.2-240.9h-19.5c-8.8,0-14.7,5.9-14.7,14.7v1l-7.6-8.7c-4.1-4.8-8.9-7-15.2-7h-13.5
			c-8.8,0-14.7,5.9-14.7,14.7v33.2c-2.6-2.5-6.2-3.9-10.5-3.9h-2.4c5.3-2.1,8.7-7,8.7-13.6v-15.7c0-8.8-5.9-14.7-14.7-14.7h-32.4
			c-19.9,0-30.8,6.6-36.4,15.3v-0.6c0-8.8-5.9-14.7-14.7-14.7h-55.2c-6,0-10.7,2.8-13,7.4c-2.3-4.6-7-7.4-13-7.4h-36.3
			c-13.3,0-23.7,4.3-30,12c-1.1-7.3-6.6-12-14.5-12h-60.2c-8.8,0-14.7,5.9-14.7,14.7v4.2c-4.9-10.4-15.8-18.8-38.4-18.8h-43.7
			c-8.8,0-14.7,5.9-14.7,14.7v84c0,8.8,5.9,14.7,14.7,14.7h43.7c22.5,0,33.5-8.4,38.4-18.8v4.2c0,8.8,5.9,14.7,14.7,14.7h60.2
			c4.7,0,8.6-1.7,11.2-4.6c2.6,2.9,6.4,4.6,11.2,4.6h41c12.8,0,22.9-4,29.3-11.1c1.4,6.8,6.8,11.1,14.3,11.1h55.2
			c8.8,0,14.7-5.9,14.7-14.7v-0.6c5.6,8.7,16.5,15.3,36.4,15.3h40.9c5.7,0,10.1-2.5,12.6-6.6c2.5,4.1,6.9,6.6,12.6,6.6h19.5
			c8.8,0,14.7-5.9,14.7-14.7v-15l2.2,2.6v12.4c0,8.8,5.9,14.7,14.7,14.7h19.5c8.8,0,14.7-5.9,14.7-14.7v-84
			C1196.9-235,1191-240.9,1182.2-240.9z M712-172h-1.5v-24.1h1.5V-172z M843.7-167.4c-2-2.3-4.8-3.8-8.1-4.4
			c0.7-1.8,1.1-3.8,1.1-6.1v-13.9c0-1.8-0.2-3.5-0.7-5c1.5-0.3,2.9-0.8,4.2-1.5v3.8c0,10.1,3.1,17.9,9.1,23.3
			C847.1-170.3,845.2-169.1,843.7-167.4z M942.3-172.3h-2.8c-2.5,0-4.8,0.5-6.7,1.4v-3.1c0-11-3.6-19.2-10.7-24.6
			c1.8-1.2,3.3-2.9,4.3-4.9c2.3,4.7,7,7.5,13.1,7.5h2.8V-172.3z M992.1-172.3v-23.6h2.6c3.6,0,6.8-1,9.2-2.8v29.2
			c-2.4-1.8-5.6-2.8-9.2-2.8H992.1z M1053.3-189.2l0-6.7h7.2C1057.3-194.6,1054.8-192.3,1053.3-189.2z"/>
	</g>
	<path class="st0" d="M-1028.2-137.5c-3.2,0-4.7-1.4-4.7-4.7v-15.2c0-3.2,1.4-4.7,4.7-4.7h34.9c2.2,0,3.4-1.7,3.4-3.8
		c0-3-1.2-4.1-3.4-4.4l-19.5-2.7c-12.2-1.8-20.1-7-20.1-21.5V-208c0-14.8,10-22.8,26.8-22.8h36.3c3.2,0,4.7,1.4,4.7,4.7v15.4
		c0,3.2-1.4,4.7-4.7,4.7h-30.2c-2.2,0-3.5,1.6-3.5,3.9c0,2.3,1.3,3.9,3.5,4.2l19.3,2.6c12.2,1.8,20.2,7,20.2,21.5v13.6
		c0,14.8-10.1,22.8-26.8,22.8H-1028.2z"/>
	<path class="st0" d="M-948.3-142.2v-15.4c0-3.2,1.4-4.7,4.7-4.7h12.8v-43.6h-12.8c-3.2,0-4.7-1.4-4.7-4.7v-15.7
		c0-3.2,1.4-4.7,4.7-4.7h55.2c3.2,0,4.7,1.4,4.7,4.7v15.7c0,3.2-1.4,4.7-4.7,4.7H-901v43.6h12.6c3.2,0,4.7,1.4,4.7,4.7v15.4
		c0,3.2-1.4,4.7-4.7,4.7h-55.2C-946.9-137.5-948.3-138.9-948.3-142.2z"/>
	<path class="st0" d="M-837.3-137.5c-21.8,0-31.9-8.4-31.9-26.5v-40.5c0-18,10.1-26.5,31.9-26.5h32.4c3.2,0,4.7,1.4,4.7,4.7v15.7
		c0,3.2-1.4,4.7-4.7,4.7h-27c-5.4,0-7.9,2.1-7.9,6.5v31c0,4.4,1.9,6.4,6,6.4h12.6v-20.2c0-3.2,1.4-4.7,4.7-4.7h20.1
		c3.2,0,4.7,1.4,4.7,4.7v40.1c0,3.2-1.4,4.7-4.7,4.7H-837.3z"/>
	<path class="st0" d="M-771.3-137.5c-3.2,0-4.7-1.4-4.7-4.7v-84c0-3.2,1.4-4.7,4.7-4.7h13.5c3.4,0,5.4,0.9,7.7,3.5l25.2,28.8v-27.6
		c0-3.2,1.4-4.7,4.7-4.7h19.5c3.2,0,4.7,1.4,4.7,4.7v84c0,3.2-1.4,4.7-4.7,4.7h-19.5c-3.2,0-4.7-1.4-4.7-4.7v-16l-22.2-26.8v42.8
		c0,3.2-1.4,4.7-4.7,4.7H-771.3z"/>
	<path class="st0" d="M-676-137.5c-3.2,0-4.7-1.4-4.7-4.7v-15.2c0-3.2,1.4-4.7,4.7-4.7h34.9c2.2,0,3.4-1.7,3.4-3.8
		c0-3-1.2-4.1-3.4-4.4l-19.5-2.7c-12.2-1.8-20.1-7-20.1-21.5V-208c0-14.8,10-22.8,26.8-22.8h36.3c3.2,0,4.7,1.4,4.7,4.7v15.4
		c0,3.2-1.4,4.7-4.7,4.7h-30.2c-2.2,0-3.5,1.6-3.5,3.9c0,2.3,1.3,3.9,3.5,4.2l19.3,2.6c12.2,1.8,20.2,7,20.2,21.5v13.6
		c0,14.8-10.1,22.8-26.8,22.8H-676z"/>
	<path class="st0" d="M-589.5-124.5c-3.2,0-4.7-1.3-4.7-4.7v-5.2c0-3.2,1.4-4.7,4.7-4.7h8.9c2.3,0,3.5-1.3,3.5-3.6v-1.9h-14.1
		c-3.2,0-4.7-1.4-4.7-4.7v-19.2c0-3.2,1.4-4.7,4.7-4.7h26.2c3.2,0,4.7,1.4,4.7,4.7v24.4c0,13.2-7.5,19.6-19.2,19.6H-589.5z"/>
	<path class="st0" d="M-485.9-137.5c-21.8,0-31.9-8.4-31.9-26.5v-40.5c0-18,10.1-26.5,31.9-26.5h32.4c3.2,0,4.7,1.4,4.7,4.7v15.7
		c0,3.2-1.4,4.7-4.7,4.7h-27c-5.4,0-7.9,2.1-7.9,6.5v31c0,4.4,1.9,6.4,6,6.4h12.6v-20.2c0-3.2,1.4-4.7,4.7-4.7h20.1
		c3.2,0,4.7,1.4,4.7,4.7v40.1c0,3.2-1.4,4.7-4.7,4.7H-485.9z"/>
	<path class="st0" d="M-419.9-137.5c-3.2,0-4.7-1.4-4.7-4.7v-84c0-3.2,1.4-4.7,4.7-4.7h43.2c19.5,0,25.5,8.8,25.5,21.7v6
		c0,7.3-1.8,12.4-7.3,14.8c9.5,1,15.7,7.9,15.7,18.8v27.5c0,3.2-1.4,4.7-4.7,4.7h-20.1c-3.2,0-4.7-1.4-4.7-4.7V-162
		c0-3.9-1.3-5.6-4.9-5.6h-18.2v25.4c0,3.2-1.4,4.7-4.7,4.7H-419.9z M-395.2-190.9h9.7c4.5,0,5.7-2.6,5.7-6.1v-4.4
		c0-3.5-1.2-6.1-5.7-6.1h-9.7V-190.9z"/>
	<path class="st0" d="M-306.4-137.5h-19.1c-3.2,0-4.7-1.4-4.7-4.7v-34.2c0-5.2,1.6-11.7,5.1-20.8l11.3-29.4c1-3,3.1-4.3,6.6-4.3
		h34.9c3.4,0,5.4,1.3,6.5,4.3l11.3,29.4c3.5,9.1,5.1,15.6,5.1,20.8v34.2c0,3.2-1.4,4.7-4.7,4.7h-19.6c-3.5,0-5.1-1.4-5.1-4.7v-18.2
		h-23v18.2C-301.7-138.9-303.2-137.5-306.4-137.5z M-300.4-183.9h20.4l-6.1-19.7c-0.6-1.6-1.4-2.2-2.5-2.2h-3.2
		c-1,0-1.8,0.6-2.5,2.2L-300.4-183.9z"/>
	<path class="st0" d="M-228.8-137.5c-3.2,0-4.7-1.4-4.7-4.7v-84c0-3.2,1.4-4.7,4.7-4.7h39.7c23.6,0,30.6,10.2,30.6,25.3v16.6
		c0,15-7,25.3-30.6,25.3h-14.9v21.5c0,3.2-1.4,4.7-4.7,4.7H-228.8z M-204.3-187h11.7c5.1,0,6.1-3,6.1-6.4v-6.9c0-3.4-1-6.4-6.1-6.4
		h-11.7V-187z"/>
	<path class="st0" d="M-140.4-137.5c-3.2,0-4.7-1.4-4.7-4.7v-84c0-3.2,1.4-4.7,4.7-4.7h20.1c3.2,0,4.7,1.4,4.7,4.7v28.1H-94v-28.1
		c0-3.2,1.4-4.7,4.7-4.7h20.1c3.2,0,4.7,1.4,4.7,4.7v84c0,3.2-1.4,4.7-4.7,4.7h-20.1c-3.2,0-4.7-1.4-4.7-4.7v-28.8h-21.7v28.8
		c0,3.2-1.4,4.7-4.7,4.7H-140.4z"/>
	<path class="st0" d="M-48.7-142.2v-15.4c0-3.2,1.4-4.7,4.7-4.7h12.8v-43.6h-12.8c-3.2,0-4.7-1.4-4.7-4.7v-15.7
		c0-3.2,1.4-4.7,4.7-4.7h55.2c3.2,0,4.7,1.4,4.7,4.7v15.7c0,3.2-1.4,4.7-4.7,4.7H-1.4v43.6h12.6c3.2,0,4.7,1.4,4.7,4.7v15.4
		c0,3.2-1.4,4.7-4.7,4.7h-55.2C-47.3-137.5-48.7-138.9-48.7-142.2z"/>
	<path class="st0" d="M62.3-137.5c-21.8,0-31.9-8.4-31.9-26.5v-40.3c0-18.2,10.1-26.6,31.9-26.6h31.6c3.2,0,4.7,1.4,4.7,4.7v15.7
		c0,3.2-1.4,4.7-4.7,4.7H67.9c-5.4,0-7.9,2.1-7.9,6.5v30.9c0,4.3,2.5,6.2,7.9,6.2h26.1c3.2,0,4.7,1.4,4.7,4.7v15.4
		c0,3.2-1.4,4.7-4.7,4.7H62.3z"/>
	<path class="st0" d="M115.6-137.5c-3.2,0-4.7-1.4-4.7-4.7v-15.2c0-3.2,1.4-4.7,4.7-4.7h34.9c2.2,0,3.4-1.7,3.4-3.8
		c0-3-1.2-4.1-3.4-4.4l-19.5-2.7c-12.2-1.8-20.1-7-20.1-21.5V-208c0-14.8,10-22.8,26.8-22.8h36.3c3.2,0,4.7,1.4,4.7,4.7v15.4
		c0,3.2-1.4,4.7-4.7,4.7h-30.2c-2.2,0-3.5,1.6-3.5,3.9c0,2.3,1.3,3.9,3.5,4.2l19.3,2.6c12.2,1.8,20.2,7,20.2,21.5v13.6
		c0,14.8-10.1,22.8-26.8,22.8H115.6z"/>
	<path class="st0" d="M274.6-161.7c3.8,0,4.9-1.7,4.9-5.2v-17.9c0-3.2,1.4-4.7,4.7-4.7h25.2c3.2,0,4.7,1.3,4.7,4.7v14
		c0,3.2-1.4,4.7-4.7,4.7h-3v5.8c0,13.9-8.2,22.8-23.2,22.8h-36.1c-16,0-24.5-8.9-24.5-22.8v-10.4c0-12.2,7-19.2,16.3-20.1
		c-5.7-2.5-7.7-7.4-7.7-14v-6.2c0-11.4,7.3-19.8,24.9-19.8h27.4c3.2,0,4.7,1.4,4.7,4.7v14.9c0,3.2-1.4,4.7-4.7,4.7h-18.9
		c-4.1,0-4.9,1.8-4.9,3.9v2.7c0,2.1,0.8,3.9,4.9,3.9h1.9c3.2,0,4.7,1.4,4.7,4.7v13.4c0,3.2-1.4,4.7-4.7,4.7h-10.4
		c-4.1,0-4.9,1.7-4.9,3.8v4c0,2.1,0.8,3.9,4.9,3.9H274.6z"/>
	<path class="st0" d="M441.6-230.9c3.2,0,4.7,1.4,4.7,4.7v50.3c0,5.6,0,9.7-2.3,16.1l-6.5,17.6c-0.9,2.6-2.5,4.7-5.2,4.7H415
		c-2.9,0-5.2-1.2-6-3.9l-6-21.1c-0.5-1.7-1.3-2.2-2.3-2.2h-1.2c-1,0-1.8,0.5-2.3,2.2l-6.1,21.1c-0.8,2.6-2.7,3.9-5.4,3.9h-17.1
		c-2.9,0-4.8-1.9-5.7-4.7l-6.5-17.9c-2.3-6.4-2.3-10.5-2.3-16.1v-50.1c0-3.2,1.4-4.7,4.7-4.7h20c3.2,0,4.7,1.4,4.7,4.7v47.7
		l7.5-16.3c1.4-3,3.5-4,6.9-4h5.4c3.4,0,5.4,1,6.9,4l7.5,16.3v-47.7c0-3.2,1.3-4.7,4.7-4.7H441.6z"/>
	<path class="st0" d="M467.7-137.5c-3.2,0-4.7-1.4-4.7-4.7v-84c0-3.2,1.4-4.7,4.7-4.7h60.2c3.2,0,4.7,1.4,4.7,4.7v15.2
		c0,3.2-1.4,4.7-4.7,4.7H492v10h25.3c3.2,0,4.7,1.4,4.7,4.7v13.9c0,3.2-1.4,4.7-4.7,4.7H492v11.2h35.8c3.2,0,4.7,1.4,4.7,4.7v15.2
		c0,3.2-1.4,4.7-4.7,4.7H467.7z"/>
	<path class="st0" d="M552.5-137.5c-3.2,0-4.7-1.4-4.7-4.7v-84c0-3.2,1.4-4.7,4.7-4.7h41.4c17,0,24.9,6.2,24.9,19.8v6.2
		c0,7.3-2.5,11.8-7.7,14c11.2,1,16.3,7.4,16.3,20.1v11.9c0,14.5-7.9,21.3-25.2,21.3H552.5z M577-194.8h11c3.4,0,4.9-1.7,4.9-5.2
		v-3.6c0-3.5-1.6-5.2-4.9-5.2h-11V-194.8z M577-159.5h16.9c3.4,0,4.9-1.7,4.9-5.2v-5.1c0-3.5-1.6-5.1-4.9-5.1H577V-159.5z"/>
	<path class="st0" d="M675.7-137.5c-3.2,0-4.7-1.4-4.7-4.7v-84c0-3.2,1.4-4.7,4.7-4.7h43.7c21.8,0,31.9,8.4,31.9,26.5v40.5
		c0,18-10.1,26.5-31.9,26.5H675.7z M700.4-162h15.4c4.1,0,6.1-1.9,6.1-6.4v-31.5c0-4.3-1.9-6.2-6.1-6.2h-15.4V-162z"/>
	<path class="st0" d="M772.4-137.5c-3.2,0-4.7-1.4-4.7-4.7v-84c0-3.2,1.4-4.7,4.7-4.7h60.2c3.2,0,4.7,1.4,4.7,4.7v15.2
		c0,3.2-1.4,4.7-4.7,4.7h-35.8v10h25.3c3.2,0,4.7,1.4,4.7,4.7v13.9c0,3.2-1.4,4.7-4.7,4.7h-25.3v11.2h35.8c3.2,0,4.7,1.4,4.7,4.7
		v15.2c0,3.2-1.4,4.7-4.7,4.7H772.4z"/>
	<path class="st0" d="M854.9-137.5c-3.2,0-4.7-1.4-4.7-4.7v-15.2c0-3.2,1.4-4.7,4.7-4.7h34.9c2.2,0,3.4-1.7,3.4-3.8
		c0-3-1.2-4.1-3.4-4.4l-19.5-2.7c-12.2-1.8-20.1-7-20.1-21.5V-208c0-14.8,10-22.8,26.8-22.8h36.3c3.2,0,4.7,1.4,4.7,4.7v15.4
		c0,3.2-1.4,4.7-4.7,4.7h-30.2c-2.2,0-3.5,1.6-3.5,3.9c0,2.3,1.3,3.9,3.5,4.2l19.3,2.6c12.2,1.8,20.2,7,20.2,21.5v13.6
		c0,14.8-10.1,22.8-26.8,22.8H854.9z"/>
	<path class="st0" d="M934.8-142.2v-15.4c0-3.2,1.4-4.7,4.7-4.7h12.8v-43.6h-12.8c-3.2,0-4.7-1.4-4.7-4.7v-15.7
		c0-3.2,1.4-4.7,4.7-4.7h55.2c3.2,0,4.7,1.4,4.7,4.7v15.7c0,3.2-1.4,4.7-4.7,4.7h-12.6v43.6h12.6c3.2,0,4.7,1.4,4.7,4.7v15.4
		c0,3.2-1.4,4.7-4.7,4.7h-55.2C936.2-137.5,934.8-138.9,934.8-142.2z"/>
	<path class="st0" d="M1045.8-137.5c-21.8,0-31.9-8.4-31.9-26.5v-40.5c0-18,10.1-26.5,31.9-26.5h32.4c3.2,0,4.7,1.4,4.7,4.7v15.7
		c0,3.2-1.4,4.7-4.7,4.7h-27c-5.4,0-7.9,2.1-7.9,6.5v31c0,4.4,1.9,6.4,6,6.4h12.6v-20.2c0-3.2,1.4-4.7,4.7-4.7h20.1
		c3.2,0,4.7,1.4,4.7,4.7v40.1c0,3.2-1.4,4.7-4.7,4.7H1045.8z"/>
	<path class="st0" d="M1111.8-137.5c-3.2,0-4.7-1.4-4.7-4.7v-84c0-3.2,1.4-4.7,4.7-4.7h13.5c3.4,0,5.4,0.9,7.7,3.5l25.2,28.8v-27.6
		c0-3.2,1.4-4.7,4.7-4.7h19.5c3.2,0,4.7,1.4,4.7,4.7v84c0,3.2-1.4,4.7-4.7,4.7h-19.5c-3.2,0-4.7-1.4-4.7-4.7v-16l-22.2-26.8v42.8
		c0,3.2-1.4,4.7-4.7,4.7H1111.8z"/>
</g>
</svg>
