<?xml version="1.0" encoding="utf-8"?>
<!-- Generator: Adobe Illustrator 24.0.2, SVG Export Plug-In . SVG Version: 6.00 Build 0)  -->
<svg version="1.1" id="Layer_1" xmlns="http://www.w3.org/2000/svg" xmlns:xlink="http://www.w3.org/1999/xlink" x="0px" y="0px"
	 viewBox="0 0 2360.1 1249.2" style="enable-background:new 0 0 2360.1 1249.2;" xml:space="preserve">
<style type="text/css">
	.st0{fill:none;}
	.st1{fill:#FFFFFF;}
	.st2{fill:#063F5C;}
	.st3{fill:#F5AC1B;}
	.st4{fill:#BCBEC0;}
	.st5{fill:#439EBD;}
	.st6{clip-path:url(#SVGID_2_);}
	.st7{fill:url(#SVGID_3_);}
	.st8{fill:url(#SVGID_4_);}
	.st9{clip-path:url(#SVGID_6_);}
	.st10{fill:url(#SVGID_7_);}
	.st11{fill:url(#SVGID_8_);}
	.st12{clip-path:url(#SVGID_10_);}
	.st13{fill:url(#SVGID_11_);}
	.st14{fill:url(#SVGID_12_);}
	.st15{clip-path:url(#SVGID_14_);}
	.st16{fill:url(#SVGID_15_);}
</style>
<rect x="0" class="st5" width="2360.1" height="1254.4"/>
<g>
	<defs>
		<rect id="SVGID_1_" width="2362.1" height="1249.2"/>
	</defs>
	<clipPath id="SVGID_2_">
		<use xlink:href="#SVGID_1_"  style="overflow:visible;"/>
	</clipPath>
	<g class="st6">
		<radialGradient id="SVGID_3_" cx="474.7951" cy="737.6868" r="2781.8594" gradientUnits="userSpaceOnUse">
			<stop  offset="0" style="stop-color:#FFFFFF;stop-opacity:0.7"/>
			<stop  offset="4.632131e-02" style="stop-color:#FFFFFF;stop-opacity:0.6662"/>
			<stop  offset="0.4115" style="stop-color:#FFFFFF;stop-opacity:0.4"/>
			<stop  offset="1" style="stop-color:#F9ED32;stop-opacity:0"/>
		</radialGradient>
		<path class="st7" d="M475.3,3519.5h-0.5c-50.5,0-101.6-1.4-151.8-4.1L473.5,741.3c7.2,0.4-7.3,0,0,0l0,0l15.6,2778.2
			c-4.4,0-8.9,0-13.3,0L475.3,3519.5z M655.6,3513.7L473.5,741.3c8-0.5-7.8,1,0,0L822,3498C767,3504.8,711,3510.1,655.6,3513.7z
			 M156.5,3501.4c-55.3-6.3-111.1-14.4-165.8-24.1L473.5,741.3c7.7,1.3-7.8-0.9,0,0L156.5,3501.4z M987.5,3472.2l-514-2730.9
			c7.5-1.4-7.4,1.9,0,0l678.2,2695C1097.6,3449.9,1042.3,3461.9,987.5,3472.2z M-173.6,3443.3c-54.2-13-108.8-27.8-162.2-44
			L473.5,741.3c7.3,2.2-7.4-1.8,0,0L-173.6,3443.3z M1313.3,3390.6L473.5,741.3c7.2-2.3-7.1,2.7,0,0L1472,3335.1
			C1419.9,3355.1,1366.5,3373.8,1313.3,3390.6z M-495.3,3345.4c-52.4-19.5-104.8-40.8-155.9-63.5L473.5,741.3c7,3.1-7.2-2.7,0,0
			L-495.3,3345.4z M1626.6,3270.3L473.5,741.3c7-3.2-6.8,3.6,0,0l1303.4,2455C1727.8,3222.4,1677.2,3247.3,1626.6,3270.3z
			 M-802.7,3209.2c-49.4-25.6-98.7-53-146.5-81.5L473.5,741.3c6.8,4-6.9-3.6,0,0L-802.7,3209.2z M1922.5,3113.5L473.5,741.3
			c6.7-4.1-6.5,4.5,0,0l1589.1,2280.8C2017,3053.8,1969.8,3084.6,1922.5,3113.5z M-1090.6,3037.5c-45.9-31.3-91.5-64.4-135.5-98.4
			L473.5,741.3c6.2,4.8-6.5-4.5,0,0L-1090.6,3037.5z M2196.9,2922.5L473.5,741.3c6.2-4.9-5.9,5.3,0,0l1851.4,2073.8
			C2283.5,2852.1,2240.4,2888.2,2196.9,2922.5z M-1355.1,2833c-41.8-36.5-83-74.7-122.5-113.7l1951.1-1978c5.7,5.6-6-5.2,0,0
			L-1355.1,2833z M2446.2,2700.4L473.5,741.3c5.6-5.6-5.3,6,0,0l2087,1837.2C2523.8,2620.1,2485.4,2661.1,2446.2,2700.4z
			 M-1593,2598.6c-37.1-41.2-73.5-84.1-108-127.5L473.5,741.3c5,6.2-5.3-5.9,0,0L-1593,2598.6z M2667.4,2449.9L473.5,741.3
			c4.9-6.2-4.5,6.5,0,0L2766.4,2315C2734.9,2360.7,2701.6,2406.1,2667.4,2449.9z M-1801.3,2337.4c-32-45.4-62.9-92.4-92.1-139.6
			L473.5,741.3c4.1,6.7-4.5-6.4,0,0L-1801.3,2337.4z M2857.3,2174.3L473.5,741.3c4-6.7-3.6,6.9,0,0l2466.1,1286.7
			C2913.8,2077.4,2886.1,2126.6,2857.3,2174.3z M-1977,2052.7c-26.3-49-51.5-99.4-74.8-149.9L473.5,741.3c3.2,7-3.7-6.8,0,0
			L-1977,2052.7z M3013.1,1877L473.5,741.3c3.2-7-2.7,7.2,0,0l2603.8,980.2C3057.6,1773.7,3036,1826,3013.1,1877z M-2117.4,1748.5
			c-20.3-52-39.2-105.3-56.3-158.4L473.5,741.3c2.3,7.3-2.8-7.1,0,0L-2117.4,1748.5z M3132.1,1562.3l-2658.6-821
			c2.3-7.3-1.8,7.4,0,0l2703.4,659C3163.7,1454.5,3148.6,1509,3132.1,1562.3z M-2220.3,1428.7c-13.8-54-26.2-109.1-36.7-163.9
			L473.5,741.3c1.5,7.6-1.9-7.4,0,0L-2220.3,1428.7z M3211.9,1236.1L473.5,741.3c1.4-7.7-0.9,7.8,0,0l2763.3,329.1
			C3230.2,1125.6,3221.8,1181.4,3211.9,1236.1z M-2283.6,1099.3c-7.2-55-12.8-110.9-16.6-166.3L473.5,741.3c0.6,8-1-7.8,0,0
			L-2283.6,1099.3z M3251.7,904L473.5,741.3c0.5-8.1,0,8.3,0,0c0-2.9,0.1,2.9,0,0l2782.5-61.7c0.4,19.3,0.6,38.8,0.6,58.1
			C3256.7,793,3255,848.9,3251.7,904z M-2306.9,766.5c-0.1-9.6-0.2-19.2-0.2-28.8c0-45.7,1.1-91.9,3.4-137.4l2777.2,141
			c-0.3,6.7,0-6.8,0,0c0,1.5,0-1.4,0,0L-2306.9,766.5z M473.5,741.3C472.9,733.4,474.6,749.1,473.5,741.3l2755.8-394.4
			c7.8,54.9,13.9,110.9,18.4,166.3L473.5,741.3z M473.5,741.3l-2764.1-307.5c6-55.3,13.8-111.1,23.2-165.9L473.5,741.3
			C472.2,749,474.4,733.5,473.5,741.3z M473.5,741.3C472,733.8,475.5,748.7,473.5,741.3L3162.4,18.1
			c14.4,53.8,27.3,108.8,38.4,163.5L473.5,741.3z M473.5,741.3l-2707.7-637.9c12.7-54.3,27.2-109,43.2-162.4L473.5,741.3
			C471.3,748.6,475.2,733.9,473.5,741.3z M473.5,741.3C471.1,734.1,476.4,748.4,473.5,741.3L3056.1-300.6
			c20.8,51.7,40.3,104.8,58,157.7L473.5,741.3z M473.5,741.3L-2138-218.5c19.2-52.4,40.3-105,62.6-156.2L473.5,741.3
			C470.4,748.4,476.1,734.1,473.5,741.3z M473.5,741.3C470.2,734.3,477.3,748.1,473.5,741.3l2439-1344.6
			c26.8,48.7,52.5,98.9,76.3,149.1L473.5,741.3z M473.5,741.3L-2003.6-526.6c25.3-49.6,52.5-99.1,80.8-147.1L473.5,741.3
			C469.5,748.1,477,734.4,473.5,741.3z M473.5,741.3C469.3,734.6,478.1,747.7,473.5,741.3L2733.8-886c32.4,45,63.9,91.7,93.5,138.6
			L473.5,741.3z M473.5,741.3L-1833.4-815.4c31-46.1,63.9-91.8,97.7-136L473.5,741.3C468.7,747.6,477.9,734.8,473.5,741.3z
			 M473.5,741.3C468.5,735.1,478.9,747.2,473.5,741.3L2522.8-1145c37.5,40.8,74.3,83.3,109.4,126.3L473.5,741.3z M473.5,741.3
			l-2103.7-1822.4c36.2-41.9,74.2-83.3,112.9-123L473.5,741.3C467.9,747.1,478.7,735.3,473.5,741.3z M473.5,741.3
			C467.7,735.8,479.6,746.5,473.5,741.3l1808.9-2118.2c42.1,36,83.7,73.8,123.6,112.3L473.5,741.3z M473.5,741.3L-1397-1320.2
			c41-37.3,83.7-73.9,126.9-108.7L473.5,741.3C467.3,746.3,479.4,736,473.5,741.3z M473.5,741.3
			C467.2,736.5,480.1,745.7,473.5,741.3l1542.1-2320c46.2,30.8,92.2,63.4,136.5,96.9L473.5,741.3z M473.5,741.3l-1610.4-2271.2
			c45.2-32.2,92-63.4,139.1-92.8L473.5,741.3C466.8,745.5,479.9,736.7,473.5,741.3z M473.5,741.3
			C466.8,737.4,480.4,744.8,473.5,741.3l1252.3-2488.7c49.8,25.1,99.4,52,147.6,80.1L473.5,741.3z M473.5,741.3L-853.2-1707
			c48.9-26.6,99.2-52,149.6-75.6L473.5,741.3C466.6,744.6,480.3,737.6,473.5,741.3z M473.5,741.3
			C466.4,738.3,480.7,743.9,473.5,741.3l943.6-2621.5c52.5,18.9,105.2,39.7,156.5,61.8L473.5,741.3z M473.5,741.3L-549.8-1849.1
			c51.9-20.6,105-39.8,158-57.1L473.5,741.3C466.2,743.7,480.6,738.5,473.5,741.3z M473.5,741.3C466.2,739.2,481,743,473.5,741.3
			l621.1-2715.9c54.4,12.4,109.1,26.6,162.7,42.3L473.5,741.3z M473.5,741.3l-704.1-2695c53.9-14.1,109-26.8,163.7-37.6L473.5,741.3
			C466,742.8,480.9,739.4,473.5,741.3z M473.5,741.3C465.8,740,481.3,742.1,473.5,741.3L764-2029.2c55.3,5.7,111.1,13.2,166,22.3
			L473.5,741.3z M473.5,741.3l-375-2760.1c55-7.5,111-13.4,166.4-17.5L473.5,741.3C465.6,741.9,481.3,740.3,473.5,741.3z
			 M473.5,741.3C465.4,741,482.1,741.2,473.5,741.3l-42.2-2785.2c14.4-0.2,29.1-0.3,43.4-0.3c40.8,0,82.1,0.9,122.7,2.7L473.5,741.3
			z"/>
	</g>
</g>
<radialGradient id="SVGID_4_" cx="424.0627" cy="707.5964" r="393.4777" gradientUnits="userSpaceOnUse">
	<stop  offset="0" style="stop-color:#FFFFFF;stop-opacity:0.7"/>
	<stop  offset="4.632131e-02" style="stop-color:#FFFFFF;stop-opacity:0.6662"/>
	<stop  offset="0.4115" style="stop-color:#FFFFFF;stop-opacity:0.4"/>
	<stop  offset="1" style="stop-color:#F9ED32;stop-opacity:0"/>
</radialGradient>
<circle class="st8" cx="424.1" cy="707.6" r="393.5"/>
<g>
	<g>
		<path d="M1036,520.6l20.6-79.9V291.2l-36,115.1l7.6,56.7l-54.2,57.5H750.4l8.7-71.6l-36.9-119.2v68.9l15.5,63.4l-55.1,58.5H492.4
			l20-79.8v-7.6l-14.1,14.3L431,497.9c-8.9,6.8-32.6,22.7-58.1,22.7h-90.8c-24.9,0-48.1-9.2-63.5-25.3l-28.6-29.9
			c-6.1-6.1-10.9-12.1-14.5-18.4c-8.4-13.6-12.9-28.9-12.9-44.2V286c0-22.7,9.3-44.6,26.3-61.5l39-39.5l4.3-4.3l27.4-26.1
			c16.9-15.9,38.8-24.2,63.3-24.2h95.1c24,0,45.6,8.1,62.5,23.4l24.4,22.1l46.5-45.5h824l24,145L1369,306v14.1l46.6-9.5L1381.2,466
			l-51.9,54.6H1036z"/>
		<polygon points="1809.9,520.6 1811.5,514.5 1805.6,520.6 1616.8,520.6 1629.9,468 1627.6,468 1577.6,520.6 1388.8,520.6 
			1408.7,440.4 1408.7,247.3 1392,185.1 1448.4,130.4 1610.8,130.4 1639.1,178 1688.2,130.4 1864.6,130.4 1862.7,137.7 
			1870.1,130.4 2149.4,130.4 2173.4,275.5 2142.9,306 2142.9,320.1 2189.4,310.6 2155.1,466 2103.2,520.6 		"/>
		<polygon points="534.2,905.7 536.2,893.9 524.5,905.7 320.6,905.7 365,816.2 423.2,623.8 416.5,569.5 471.5,515.6 705.5,515.6 
			696.4,581.7 754.6,773.6 790.2,845.3 730.4,905.7 		"/>
		<path d="M1834.1,905.7L1813,879l-24.8,26.7h-190.7l19.9-80.2v-6.7l-13.7,13.9l-67.2,50.4c-8.9,6.8-32.6,22.7-58.1,22.7h-90.8
			c-24.9,0-48.1-9.2-63.5-25.3l-21.9-22.9l-45.3,48.2h-190.2l20-79.8V824l-54.9,54.6c-16.2,16.2-42,27.1-64.1,27.1H790.8
			l-33.2-148.8l22.6-23c-7.6-13.5-11.6-28.4-11.6-43.3v-30.8c0-25.1,9.1-47.6,24.9-61.8l38.6-34c1.2-1.4,2.4-2.4,3.1-3l0.2-0.2
			l0.4-0.4l25.6-22.5c16.7-14.6,38.6-22.4,63.2-22.4H1094l4.5,26.8l27.3-26.8h190.5l-19.9,75.2v16.8l37-37.4l4.3-4.3l27.4-26.1
			c16.9-15.9,38.8-24.2,63.3-24.2h95.1c24,0,45.6,8.1,62.5,23.4l24.2,21.9l46.8-45.3H1783l21.3,24.8l25.7-24.8h191.1l-20.6,74.8
			v258.9l-53.1,56.4H1834.1z"/>
	</g>
	<path class="st2" d="M516.3,324.6v29.1l10.9,36.1L485,432.4l-66,49.5c-10.9,8.3-29.1,18.7-46,18.7h-90.8
		c-20.9,0-38.2-7.8-49.1-19.1l-28.7-30c-4.8-4.8-8.7-9.6-11.7-14.8c-6.5-10.4-10-22.2-10-33.9V286c0-17.8,7.4-34.3,20.4-47.4
		l39.1-39.5l3.9-3.9l27.4-26.1c13.5-12.6,30.8-18.7,49.5-18.7h95.1c17.8,0,35.2,5.6,49.1,18.2l26.9,24.3
		c14.3,12.6,21.7,26.9,22.2,42.6v28.7l-10.9,10.4h25.2L516.3,324.6z"/>
	<path d="M322.1,444.1c-16.2,0-30.7-5.8-42.2-16.7l-27.4-26.1c-11.8-11.3-18.2-25.9-18.2-41.1V243.4c0-15.2,6.5-29.8,18.2-41.1
		l27.4-26.1c11.4-10.9,26-16.7,42.2-16.7h95.1c15.7,0,30.2,5.7,42,16.6l27.3,24.3c12.2,10.7,18.4,22.5,18.4,35.2v19.9L399.4,279
		v-23.9c0-5.3-8.2-9.5-18.2-9.5h-20.9c-10.9,0-18.2,6.8-18.2,16.9v78.6c0,10.1,7.3,16.9,18.2,16.9H379c11.4,0,20.4-7.4,20.4-16.9
		v-18.1l-11.6-38H516L505,323v32.3l9.4,30.6l-55.5,42c-13.8,10.9-27.4,16.2-41.6,16.2H322.1z"/>
	<path class="st1" d="M506.3,383.3l-8.3-26.9V322l8.7-30H397.3l9.1,30v19.1c0,13.5-12.2,23.9-27.4,23.9h-18.7
		c-14.8,0-25.2-10-25.2-23.9v-78.6c0-13.9,10.4-23.9,25.2-23.9h20.9c14.3,0,25.2,6.9,25.2,16.5v15.2l91.7-20.4v-14.3
		c0-10.9-5.6-20.9-16.1-30l-27.4-24.3c-10.4-9.6-23.5-14.8-37.4-14.8h-95.1c-14.3,0-27.4,5.2-37.4,14.8l-27.4,26.1
		c-10.4,10-16.1,22.6-16.1,36.1v116.9c0,13.5,5.6,26.1,16.1,36.1l27.4,26.1c10,9.6,23,14.8,37.4,14.8h95.1
		c12.6,0,24.8-4.8,37.4-14.8L506.3,383.3z"/>
	<polygon class="st2" points="702.2,203 702.2,401.1 715.7,456.3 674,500.6 518,500.6 532.3,443.2 532.3,245.1 517.6,191.7 
		559.7,150.4 716.1,150.4 	"/>
	<polygon points="572.8,444.1 584,402.4 584,201.3 572.8,159.6 702,159.6 691.3,201.3 691.3,402.4 702,444.1 	"/>
	<polygon class="st1" points="581.9,166.5 591,200.4 591,403.3 581.9,437.2 693.1,437.2 684.4,403.3 684.4,200.4 693.1,166.5 	"/>
	<polygon class="st2" points="1091.9,150.4 1061.9,207.3 1000.2,404.6 1007.1,456.3 965.4,500.6 773,500.6 779.5,447.2 718.3,249.5 
		687.4,190.8 729.1,150.4 895.5,150.4 890.7,184.3 926.3,150.4 	"/>
	<polygon points="826.3,444.1 831.5,404.7 769.1,203.9 745.8,159.6 883,159.6 877.8,199.5 910.2,321.7 942.3,199.5 937.6,159.6 
		1074.6,159.6 1051.8,203.9 989.1,404.7 994.8,444.1 	"/>
	<polygon class="st1" points="982,404.1 1045.4,201.3 1063.2,166.5 945.5,166.5 949.4,200 910.3,349 870.7,200 875.1,166.5 
		757.4,166.5 775.6,201.3 838.6,404.1 834.2,437.2 986.7,437.2 	"/>
	<polygon class="st2" points="1349,344.6 1389.4,336.4 1362.9,456.3 1320.8,500.6 1061.9,500.6 1076.6,443.2 1076.6,245.1 
		1062.3,191.7 1104.4,150.4 1358.6,150.4 1378.1,268.6 1349,297.7 	"/>
	<polygon points="1118.4,444.1 1129.6,402.4 1129.6,201.3 1118.4,159.6 1350.1,159.6 1365.8,254.4 1322.1,243.8 1236.9,243.8 
		1236.9,260.8 1306.5,260.8 1339,253.4 1339,349.2 1306.5,341.2 1236.9,341.2 1236.9,359.8 1325.3,359.8 1376.4,349.6 1355.5,444.1 
			"/>
	<polygon class="st1" points="1349.9,437.2 1367.3,358.5 1326,366.8 1230,366.8 1230,334.2 1307.3,334.2 1332.1,340.3 1332.1,262.1 
		1307.3,267.7 1230,267.7 1230,236.9 1322.9,236.9 1357.3,245.1 1344.2,166.5 1127.5,166.5 1136.6,200.4 1136.6,403.3 1127.5,437.2 
			"/>
	<polygon class="st2" points="1825.3,400.7 1839.2,456.3 1797.1,500.6 1642.4,500.6 1656.7,442.8 1656.7,416.3 1667.6,405 
		1656.7,415.9 1656.7,416.3 1625.5,448 1609,448 1611.1,456.3 1569,500.6 1414.3,500.6 1428.7,442.8 1428.7,244.7 1414.3,191.3 
		1456.5,150.4 1599.4,150.4 1638.9,216.9 1654.1,191.3 1696.3,150.4 1838.8,150.4 1825.3,202.6 	"/>
	<polygon points="1697.6,444.1 1708.9,402.4 1708.9,321.7 1661.4,395 1634.3,395 1586.4,321.6 1586.4,402.4 1597.1,444.1 
		1469.5,444.1 1480.8,402.4 1480.8,201.3 1469.5,159.6 1593,159.6 1647.6,253 1701.8,159.6 1825.2,159.6 1814.5,201.3 1814.5,402.4 
		1825.2,444.1 	"/>
	<polygon class="st1" points="1657.6,388.1 1715.8,298.1 1715.8,403.3 1706.7,437.2 1816.2,437.2 1807.5,403.3 1807.5,200.4 
		1816.2,166.5 1705.8,166.5 1647.6,266.9 1589,166.5 1478.6,166.5 1487.8,200.4 1487.8,403.3 1478.6,437.2 1588.1,437.2 
		1579.4,403.3 1579.4,298.1 1638.1,388.1 	"/>
	<polygon class="st2" points="2122.9,344.6 2163.3,336.4 2136.8,456.3 2094.6,500.6 1835.7,500.6 1850.5,443.2 1850.5,245.1 
		1836.1,191.7 1878.3,150.4 2132.4,150.4 2152,268.6 2122.9,297.7 	"/>
	<polygon points="1892.2,444.1 1903.5,402.4 1903.5,201.3 1892.2,159.6 2124,159.6 2139.7,254.4 2096,243.8 2010.8,243.8 
		2010.8,260.8 2080.4,260.8 2112.9,253.4 2112.9,349.2 2080.3,341.2 2010.8,341.2 2010.8,359.8 2099.1,359.8 2150.2,349.6 
		2129.3,444.1 	"/>
	<polygon class="st1" points="2123.7,437.2 2141.1,358.5 2099.8,366.8 2003.8,366.8 2003.8,334.2 2081.1,334.2 2105.9,340.3 
		2105.9,262.1 2081.1,267.7 2003.8,267.7 2003.8,236.9 2096.8,236.9 2131.1,245.1 2118.1,166.5 1901.3,166.5 1910.4,200.4 
		1910.4,403.3 1901.3,437.2 	"/>
	<polygon class="st2" points="736,781 766,841.4 722.1,885.7 557.9,885.7 567,832.3 566.1,829.7 558.7,829.7 560,841.4 516.2,885.7 
		352.8,885.7 383.7,823.6 443.6,625.5 437.5,576.8 479.7,535.6 682.5,535.6 676,583.3 	"/>
	<polygon points="613.3,829.2 619,789.3 615.5,776.7 545.8,776.7 542.4,789.3 547.5,829.2 412.8,829.2 434.9,784.9 495.6,584 
		491,544.7 670.5,544.7 665.3,584.1 726,784.9 748.7,829.2 	"/>
	<polygon class="st1" points="662.6,551.6 498.8,551.6 502.7,584.6 441.4,787.5 424.1,822.3 539.6,822.3 535.3,788.8 540.5,769.7 
		620.9,769.7 626.1,788.8 621.3,822.3 737.3,822.3 719.5,787.5 658.2,584.6 	"/>
	<polygon points="546,713.6 576.9,602.5 607.3,713.6 	"/>
	<polygon class="st2" points="576.9,625.1 599.5,707.6 553.9,707.6 	"/>
	<path class="st2" d="M1078.3,670.7c17.4,13.9,25.2,32.6,25.2,49.1v32.1c0,16.5-6.1,34.3-19.5,46.5l-66.5,66
		c-12.2,12.2-32.1,21.3-50,21.3H806.8l-27.4-122.5l26.9-27.4c-3-3-5.6-6.5-7.8-10c-6.5-10.9-10-23-10-35.2v-30.8
		c0-17.8,5.6-35.6,18.2-46.9l40-35.2c0.4-0.9,1.3-1.3,2.2-2.2l25.6-22.6c13.9-12.2,31.7-17.4,50-17.4H1077l19.5,116.9L1078.3,670.7z
		"/>
	<path class="st2" d="M830.3,621.1c0-14.3,4.3-29.1,13-39.5C834.6,592,830.3,606.4,830.3,621.1z"/>
	<path d="M854.7,829.2l-20.9-94.9l51.9,10.2h82.7c7.1,0,11.1-0.7,13.2-1.3c-0.6-0.2-1.3-0.5-2.2-0.9l-94.2-34.3
		c-12.8-4.6-24.5-13.1-32.7-23.9c-8.2-10.8-12.7-23.4-12.7-35.6v-26.9c0-16.2,6.4-30.8,18-40.9l22.6-19.6
		c12-10.6,27.4-16.5,43.2-16.5h143.6l15.6,94.8l-51.3-10.1h-68c-7.9,0-11.8,0.9-13.5,1.5c0.7,0.4,1.7,0.9,3.3,1.5l94.6,33.4
		c26.8,9.6,44.2,33,44.2,59.6v26.9c0,15.8-6.7,31.1-18,40.9l-22.1,19.5c-11.9,10.5-27.7,16.5-43.3,16.5H854.7z"/>
	<path class="st1" d="M1085.3,725.4c0-23.5-15.2-44.3-39.5-53L951.1,639c-5.6-2.2-8.3-4.3-8.3-6.5v-3c0-4.3,7-7,20.9-7h68.6
		l42.1,8.3l-13-79.1H923.7c-13.9,0-27.8,5.2-38.7,14.8L862.4,586c-10,8.7-15.6,21.3-15.6,35.6v26.9c0,21.7,16.5,44.3,40.8,53
		l94.3,34.3c5.6,2.2,7.8,3.5,7.8,6.1v3c0,3.9-6.9,6.5-21.3,6.5H885l-42.1-8.3l17.4,79.1h148.6c13.5,0,27.8-5.2,38.7-14.8l22.2-19.5
		c10-8.7,15.6-22.2,15.6-35.6V725.4z"/>
	<polygon class="st2" points="1276.4,588.1 1276.4,786.2 1289.9,841.4 1248.2,885.7 1092.2,885.7 1106.6,828.4 1106.6,630.3 
		1091.8,576.8 1133.9,535.6 1290.3,535.6 	"/>
	<polygon points="1147,829.2 1158.2,787.5 1158.2,586.4 1147,544.7 1276.3,544.7 1265.6,586.4 1265.6,787.5 1276.3,829.2 	"/>
	<polygon class="st1" points="1156.1,551.6 1165.2,585.5 1165.2,788.4 1156.1,822.3 1267.3,822.3 1258.6,788.4 1258.6,585.5 
		1267.3,551.6 	"/>
	<path class="st2" d="M1621.8,709.8v29.1l10.9,36.1l-42.1,42.6l-66,49.5c-10.9,8.3-29.1,18.7-46,18.7h-90.8
		c-20.9,0-38.2-7.8-49.1-19.1l-28.7-30c-4.8-4.8-8.7-9.6-11.7-14.8c-6.5-10.4-10-22.2-10-33.9V671.1c0-17.8,7.4-34.3,20.4-47.4
		l39.1-39.5l3.9-3.9l27.4-26.1c13.5-12.6,30.8-18.7,49.5-18.7h95.1c17.8,0,35.2,5.6,49.1,18.2l26.9,24.3
		c14.3,12.6,21.7,26.9,22.2,42.6v28.7l-10.9,10.4h25.2L1621.8,709.8z"/>
	<path d="M1427.6,829.2c-16.2,0-30.7-5.8-42.2-16.7l-27.4-26.1c-11.8-11.3-18.2-25.9-18.2-41.1V628.5c0-15.2,6.5-29.8,18.2-41.1
		l27.4-26.1c11.4-10.9,26-16.7,42.2-16.7h95.1c15.7,0,30.2,5.7,42,16.6l27.3,24.3c12.2,10.7,18.4,22.5,18.4,35.2v19.9l-105.6,23.5
		v-23.9c0-5.3-8.2-9.5-18.2-9.5h-20.9c-10.9,0-18.2,6.8-18.2,16.9v78.6c0,10.1,7.3,16.9,18.2,16.9h18.7c11.4,0,20.4-7.4,20.4-16.9
		v-18.1l-11.6-38h128.1l-11,37.9v32.3l9.4,30.6l-55.5,42c-13.8,10.9-27.4,16.2-41.6,16.2H1427.6z"/>
	<path class="st1" d="M1611.8,768.4l-8.3-26.9v-34.3l8.7-30h-109.5l9.1,30v19.1c0,13.5-12.2,23.9-27.4,23.9h-18.7
		c-14.8,0-25.2-10-25.2-23.9v-78.6c0-13.9,10.4-23.9,25.2-23.9h20.9c14.3,0,25.2,6.9,25.2,16.5v15.2l91.7-20.4v-14.3
		c0-10.9-5.6-20.9-16.1-30l-27.4-24.3c-10.4-9.6-23.5-14.8-37.4-14.8h-95.1c-14.3,0-27.4,5.2-37.4,14.8l-27.4,26.1
		c-10.4,10-16.1,22.6-16.1,36.1v116.9c0,13.5,5.6,26.1,16.1,36.1l27.4,26.1c10,9.6,23,14.8,37.4,14.8h95.1
		c12.6,0,24.8-4.8,37.4-14.8L1611.8,768.4z"/>
	<polygon class="st2" points="1838.1,535.6 1994.9,535.6 1980.6,587.7 1980.6,841.4 1938.9,885.7 1843.7,885.7 1814.2,848.4 
		1779.4,885.7 1623,885.7 1637.4,827.9 1637.4,629.8 1623,576.4 1665.2,535.6 1773.8,535.6 1802.9,569.4 	"/>
	<polygon points="1890.5,829.2 1796.8,718 1796.8,787.5 1807.5,829.2 1678.3,829.2 1689.5,787.5 1689.5,586.4 1678.3,544.7 
		1768.8,544.7 1862.8,656 1862.8,586.4 1851.6,544.7 1981.4,544.7 1970.2,586.4 1970.2,829.2 	"/>
	<polygon class="st1" points="1687.3,551.6 1696.5,585.5 1696.5,788.4 1687.3,822.3 1798.6,822.3 1789.9,788.4 1789.9,698.9 
		1893.7,822.3 1963.2,822.3 1963.2,585.5 1972.3,551.6 1860.7,551.6 1869.8,585.5 1869.8,675 1765.5,551.6 	"/>
</g>
<g>
	<defs>
		<circle id="SVGID_9_" cx="3533.5" cy="962" r="619.1"/>
	</defs>
	<clipPath id="SVGID_6_">
		<use xlink:href="#SVGID_9_"  style="overflow:visible;"/>
	</clipPath>
	<g class="st9">
		<radialGradient id="SVGID_7_" cx="3175.2261" cy="1008.1605" r="1048.121" gradientUnits="userSpaceOnUse">
			<stop  offset="0" style="stop-color:#FFFFFF;stop-opacity:0.7"/>
			<stop  offset="4.632131e-02" style="stop-color:#FFFFFF;stop-opacity:0.6662"/>
			<stop  offset="0.4115" style="stop-color:#FFFFFF;stop-opacity:0.4"/>
			<stop  offset="1" style="stop-color:#F9ED32;stop-opacity:0"/>
		</radialGradient>
		<path class="st10" d="M3175.4,2056.3h-0.2c-19,0-38.3-0.5-57.2-1.5l56.7-1045.2c2.7,0.1-2.8,0,0,0l0,0l5.9,1046.7
			c-1.7,0-3.4,0-5,0L3175.4,2056.3z M3243.4,2054.1l-68.6-1044.6c3-0.2-3,0.4,0,0L3306,2048.1
			C3285.3,2050.7,3264.2,2052.7,3243.4,2054.1z M3055.3,2049.5c-20.8-2.4-41.9-5.4-62.5-9.1l181.9-1030.9c2.9,0.5-2.9-0.3,0,0
			L3055.3,2049.5z M3368.4,2038.4l-193.7-1028.9c2.8-0.5-2.8,0.7,0,0l255.5,1015.4C3409.9,2030,3389.1,2034.6,3368.4,2038.4z
			 M2930.9,2027.6c-20.4-4.9-41-10.5-61.1-16.6l304.9-1001.4c2.8,0.8-2.8-0.7,0,0L2930.9,2027.6z M3491.1,2007.7l-316.4-998.2
			c2.7-0.9-2.7,1,0,0l376.2,977.3C3531.3,1994.3,3511.2,2001.4,3491.1,2007.7z M2809.7,1990.7c-19.7-7.3-39.5-15.4-58.7-23.9
			l423.8-957.2c2.6,1.2-2.7-1,0,0L2809.7,1990.7z M3609.2,1962.4l-434.4-952.9c2.6-1.2-2.6,1.4,0,0l491.1,925
			C3647.3,1944.3,3628.3,1953.7,3609.2,1962.4z M2693.9,1939.4c-18.6-9.6-37.2-20-55.2-30.7l536-899.1c2.5,1.5-2.6-1.4,0,0
			L2693.9,1939.4z M3720.7,1903.3l-545.9-893.8c2.5-1.5-2.4,1.7,0,0l598.7,859.3C3756.3,1880.8,3738.5,1892.4,3720.7,1903.3z
			 M2585.4,1874.7c-17.3-11.8-34.5-24.3-51-37.1l640.3-828.1c2.4,1.8-2.5-1.7,0,0L2585.4,1874.7z M3824,1831.3l-649.3-821.8
			c2.3-1.9-2.2,2,0,0l697.6,781.4C3856.7,1804.8,3840.5,1818.4,3824,1831.3z M2485.8,1797.6c-15.7-13.7-31.3-28.2-46.1-42.8
			l735.1-745.3c2.1,2.1-2.3-2,0,0L2485.8,1797.6z M3918,1747.7l-743.3-738.1c2.1-2.1-2,2.3,0,0l786.3,692.2
			C3947.2,1717.4,3932.7,1732.8,3918,1747.7z M2396.1,1709.3c-14-15.5-27.7-31.7-40.7-48l819.3-651.7c1.9,2.3-2-2.2,0,0
			L2396.1,1709.3z M4001.3,1653.3l-826.6-643.7c1.8-2.4-1.7,2.4,0,0l863.9,592.9C4026.8,1619.7,4014.2,1636.8,4001.3,1653.3z
			 M2317.7,1610.9c-12-17.1-23.7-34.8-34.7-52.6l891.8-548.7c1.6,2.5-1.7-2.4,0,0L2317.7,1610.9z M4072.9,1549.4l-898.1-539.9
			c1.5-2.5-1.4,2.6,0,0l929.2,484.8C4094.2,1512.9,4083.7,1531.5,4072.9,1549.4z M2251.5,1503.6c-9.9-18.5-19.4-37.5-28.2-56.5
			l951.4-437.6c1.2,2.6-1.4-2.6,0,0L2251.5,1503.6z M4131.6,1437.4l-956.8-427.9c1.2-2.6-1,2.7,0,0l981,369.3
			C4148.3,1398.5,4140.2,1418.2,4131.6,1437.4z M2198.6,1389c-7.6-19.6-14.8-39.7-21.2-59.7l997.4-319.8c0.9,2.7-1-2.7,0,0
			L2198.6,1389z M4176.4,1318.8l-1001.7-309.3c0.9-2.8-0.7,2.8,0,0l1018.6,248.3C4188.3,1278.2,4182.6,1298.8,4176.4,1318.8z
			 M2159.8,1268.5c-5.2-20.3-9.9-41.1-13.8-61.7l1028.8-197.2c0.5,2.8-0.7-2.8,0,0L2159.8,1268.5z M4206.5,1195.9l-1031.8-186.4
			c0.5-2.9-0.4,2.9,0,0l1041.1,124C4213.4,1154.3,4210.2,1175.3,4206.5,1195.9z M2135.9,1144.4c-2.7-20.7-4.8-41.8-6.3-62.7
			l1045.1-72.2c0.2,3-0.4-2.9,0,0L2135.9,1144.4z M4221.5,1070.8l-1046.8-61.3c0.2-3.1,0,3.1,0,0c0-1.1,0,1.1,0,0l1048.4-23.3
			c0.2,7.3,0.2,14.6,0.2,21.9C4223.3,1029,4222.7,1050.1,4221.5,1070.8z M2127.2,1019c0-3.6-0.1-7.2-0.1-10.9
			c0-17.2,0.4-34.6,1.3-51.8l1046.4,53.1c-0.1,2.5,0-2.6,0,0c0,0.5,0-0.5,0,0L2127.2,1019z M3174.7,1009.5
			C3174.5,1006.5,3175.2,1012.5,3174.7,1009.5L4213,860.9c2.9,20.7,5.3,41.8,6.9,62.6L3174.7,1009.5z M3174.7,1009.5L2133.3,893.7
			c2.3-20.8,5.2-41.9,8.7-62.5L3174.7,1009.5C3174.2,1012.4,3175.1,1006.6,3174.7,1009.5z M3174.7,1009.5
			C3174.2,1006.7,3175.5,1012.3,3174.7,1009.5L4187.8,737c5.4,20.3,10.3,41,14.5,61.6L3174.7,1009.5z M3174.7,1009.5L2154.6,769.2
			c4.8-20.5,10.3-41.1,16.3-61.2L3174.7,1009.5C3173.9,1012.3,3175.4,1006.7,3174.7,1009.5z M3174.7,1009.5
			C3173.8,1006.8,3175.8,1012.2,3174.7,1009.5l973-392.6c7.8,19.5,15.2,39.5,21.8,59.4L3174.7,1009.5z M3174.7,1009.5l-983.9-361.6
			c7.2-19.8,15.2-39.6,23.6-58.8L3174.7,1009.5C3173.6,1012.2,3175.7,1006.8,3174.7,1009.5z M3174.7,1009.5
			C3173.5,1006.9,3176.2,1012.1,3174.7,1009.5l918.9-506.6c10.1,18.3,19.8,37.2,28.8,56.2L3174.7,1009.5z M3174.7,1009.5
			l-933.3-477.7c9.5-18.7,19.8-37.3,30.4-55.4L3174.7,1009.5C3173.2,1012.1,3176.1,1006.9,3174.7,1009.5z M3174.7,1009.5
			C3173.1,1007,3176.5,1011.9,3174.7,1009.5l851.6-613.1c12.2,17,24.1,34.5,35.2,52.2L3174.7,1009.5z M3174.7,1009.5L2305.6,423
			c11.7-17.4,24.1-34.6,36.8-51.2L3174.7,1009.5C3172.9,1011.9,3176.4,1007.1,3174.7,1009.5z M3174.7,1009.5
			C3172.8,1007.2,3176.8,1011.7,3174.7,1009.5l772.1-710.7c14.1,15.4,28,31.4,41.2,47.6L3174.7,1009.5z M3174.7,1009.5l-792.6-686.6
			c13.7-15.8,28-31.4,42.6-46.3L3174.7,1009.5C3172.6,1011.7,3176.7,1007.3,3174.7,1009.5z M3174.7,1009.5
			C3172.6,1007.4,3177,1011.5,3174.7,1009.5l681.5-798.1c15.9,13.6,31.5,27.8,46.6,42.3L3174.7,1009.5z M3174.7,1009.5L2470,232.8
			c15.5-14.1,31.5-27.8,47.8-41L3174.7,1009.5C3172.4,1011.4,3177,1007.5,3174.7,1009.5z M3174.7,1009.5
			C3172.4,1007.7,3177.2,1011.2,3174.7,1009.5l581-874.1c17.4,11.6,34.7,23.9,51.4,36.5L3174.7,1009.5z M3174.7,1009.5L2568,153.8
			c17-12.1,34.7-23.9,52.4-35L3174.7,1009.5C3172.2,1011.1,3177.2,1007.8,3174.7,1009.5z M3174.7,1009.5
			C3172.2,1008.1,3177.4,1010.8,3174.7,1009.5l471.8-937.7c18.7,9.4,37.5,19.6,55.6,30.2L3174.7,1009.5z M3174.7,1009.5L2674.9,87.1
			c18.4-10,37.4-19.6,56.4-28.5L3174.7,1009.5C3172.1,1010.8,3177.3,1008.1,3174.7,1009.5z M3174.7,1009.5
			C3172.1,1008.4,3177.5,1010.5,3174.7,1009.5l355.5-987.7c19.8,7.1,39.6,15,59,23.3L3174.7,1009.5z M3174.7,1009.5l-385.5-976
			c19.5-7.7,39.6-15,59.5-21.5L3174.7,1009.5C3172,1010.4,3177.4,1008.5,3174.7,1009.5z M3174.7,1009.5
			C3172,1008.7,3177.5,1010.2,3174.7,1009.5l234-1023.3c20.5,4.7,41.1,10,61.3,15.9L3174.7,1009.5z M3174.7,1009.5L2909.5-5.9
			c20.3-5.3,41.1-10.1,61.7-14.2L3174.7,1009.5C3171.9,1010.1,3177.5,1008.8,3174.7,1009.5z M3174.7,1009.5
			C3171.8,1009,3177.7,1009.8,3174.7,1009.5L3284.2-34.3c20.8,2.2,41.9,5,62.5,8.4L3174.7,1009.5z M3174.7,1009.5L3033.5-30.4
			c20.7-2.8,41.8-5,62.7-6.6L3174.7,1009.5C3171.8,1009.8,3177.7,1009.1,3174.7,1009.5z M3174.7,1009.5
			C3171.7,1009.4,3178,1009.5,3174.7,1009.5L3158.9-39.8c5.4-0.1,10.9-0.1,16.4-0.1c15.4,0,30.9,0.3,46.2,1L3174.7,1009.5z"/>
	</g>
</g>
<g>
	<g>
		<path class="st1" d="M538.5,1100.9h-26.2c-2.9,0-5.5,0.6-7.6,1.8c-1.3-7.3-4.7-13.1-10.1-17.2c3.8-2.5,6.1-6.8,6.1-12.3v-15.4
			c0-8.8-5.9-14.7-14.7-14.7h-36.3c-15.2,0-26.6,5.6-32.4,15.4v-0.8c0-8.8-5.9-14.7-14.7-14.7h-19.5c-8.8,0-14.7,5.9-14.7,14.7v1
			l-7.6-8.7c-4.1-4.8-8.9-7-15.2-7h-13.5c-8.8,0-14.7,5.9-14.7,14.7v33.2c-2.6-2.5-6.2-3.9-10.5-3.9h-2.4c5.3-2.1,8.7-7,8.7-13.6
			v-15.7c0-8.8-5.9-14.7-14.7-14.7h-32.4c-19.9,0-30.8,6.6-36.4,15.3v-0.6c0-8.8-5.9-14.7-14.7-14.7h-55.2c-6,0-10.7,2.8-13,7.4
			c-2.3-4.6-7-7.4-13-7.4H97.5c-22.7,0-36.8,12.6-36.8,32.8v13.6c0,10.1,3.1,17.9,9.1,23.3c-5.6,2-9.1,7-9.1,13.8v15.2
			c0,8.8,5.9,14.7,14.7,14.7h41c12.8,0,22.9-4,29.3-11.1c1.4,6.8,6.8,11.1,14.3,11.1h55.2c8.8,0,14.7-5.9,14.7-14.7v-0.6
			c5.6,8.7,16.5,15.3,36.4,15.3h40.9c5.7,0,10.1-2.5,12.6-6.6c2.5,4.1,6.9,6.6,12.6,6.6h19.5c8.8,0,14.7-5.9,14.7-14.7v-15l2.2,2.6
			v12.4c0,8.8,5.9,14.7,14.7,14.7h19.5c5.6,0,10-2.4,12.4-6.4c2.5,4,6.9,6.4,12.4,6.4h41c14.3,0,25.1-5,31.3-13.7
			c0.2,0.3,0.4,0.6,0.6,0.9c-0.7,1.8-1,3.7-1,5.9v5.2c0,8.8,5.9,14.7,14.7,14.7h10c17.7,0,29.2-11.6,29.2-29.6v-24.4
			C553.2,1106.8,547.3,1100.9,538.5,1100.9z M162.7,1111.8h-2.8c-2.5,0-4.8,0.5-6.7,1.4v-3.1c0-11-3.6-19.2-10.7-24.6
			c1.8-1.2,3.3-2.9,4.3-4.9c2.3,4.7,7,7.5,13.1,7.5h2.8V1111.8z M212.5,1111.8v-23.6h2.6c3.6,0,6.8-1,9.2-2.8v29.2
			c-2.4-1.8-5.6-2.8-9.2-2.8H212.5z M273.8,1094.9l0-6.7h7.2C277.7,1089.5,275.2,1091.8,273.8,1094.9z M417.3,1115.7v-8.3
			c1.3,2.1,2.8,3.9,4.7,5.6C420.2,1113.6,418.6,1114.5,417.3,1115.7z"/>
		<path class="st1" d="M1286.2,1085.6c3.8-2.5,6.1-6.8,6.1-12.3v-15.4c0-8.8-5.9-14.7-14.7-14.7h-36.3c-13,0-23.1,4.1-29.5,11.4
			c-1.3-6.9-6.7-11.4-14.4-11.4h-31.6c-19.9,0-30.8,6.6-36.4,15.4v-0.7c0-8.8-5.9-14.7-14.7-14.7h-55.2c-5.7,0-10.1,2.5-12.6,6.6
			c-2.5-4.1-6.9-6.6-12.6-6.6h-20.1c-8.8,0-14.7,5.9-14.7,14.7v18.1h-1.7v-18.1c0-8.8-5.9-14.7-14.7-14.7h-20.1
			c-8.3,0-14,5.2-14.6,13.2c-5.7-7.6-16.1-13.2-34.2-13.2h-39.7c-8.8,0-14.7,5.9-14.7,14.7v30c-0.5-1.5-1.1-3-1.7-4.5l-11.2-29.3
			c-2.5-6.9-8.2-10.8-15.9-10.8h-34.9c-7.7,0-13.5,3.9-16,10.8l-11.2,29.3c-1.8,4.8-3.2,8.9-4.1,12.7c-1.2-1.6-2.6-3-4.1-4.3
			c1-3.2,1.5-6.8,1.5-10.9v-6c0-11.8-4.6-31.7-35.5-31.7h-43.2c-8.8,0-14.7,5.9-14.7,14.7v33.2c-2.6-2.5-6.2-3.9-10.5-3.9h-2.4
			c5.3-2.1,8.7-7,8.7-13.6v-15.7c0-8.8-5.9-14.7-14.7-14.7h-32.4c-34.6,0-41.9,19.8-41.9,36.5v40.5c0,16.6,7.3,36.5,41.9,36.5h40.9
			c5.7,0,10.1-2.5,12.6-6.6c2.5,4.1,6.9,6.6,12.6,6.6h20c8.8,0,14.7-5.9,14.7-14.7v-15.4h3.1v15.4c0,8.8,5.9,14.7,14.7,14.7h20.1
			c4.6,0,8.4-1.6,11-4.4c2.6,2.8,6.4,4.4,11,4.4h19.1c8.8,0,14.7-5.9,14.7-14.7v-8.2h3v8.2c0,8.8,6.1,14.7,15.1,14.7h19.6
			c5.7,0,10.2-2.5,12.6-6.7c2.4,4.2,6.9,6.7,12.6,6.7h20.1c8.8,0,14.7-5.9,14.7-14.7v-11.5h4.9c18,0,28.3-5.5,34.1-13.1v24.6
			c0,8.8,5.9,14.7,14.7,14.7h20.1c8.8,0,14.7-5.9,14.7-14.7v-18.8h1.7v18.8c0,8.8,5.9,14.7,14.7,14.7h20.1c5.7,0,10.1-2.5,12.6-6.6
			c2.5,4.1,6.9,6.6,12.6,6.6h55.2c8.8,0,14.7-5.9,14.7-14.7v-0.6c5.6,8.7,16.5,15.3,36.4,15.3h31.6c4.5,0,8.2-1.6,10.8-4.3
			c2.6,2.7,6.3,4.3,10.8,4.3h41c22.7,0,36.8-12.6,36.8-32.8v-13.6C1296.9,1099.1,1293.3,1090.9,1286.2,1085.6z M625.2,1094.9l0-6.7
			h7.2C629.1,1089.5,626.6,1091.8,625.2,1094.9z M1062.3,1111.8h-2.8c-4.3,0-7.9,1.4-10.5,3.9v-31.4c2.6,2.5,6.2,3.9,10.5,3.9h2.8
			V1111.8z M1112.1,1111.8v-23.6h2.6c3.6,0,6.8-1,9.2-2.8v29.2c-2.4-1.8-5.6-2.8-9.2-2.8H1112.1z M1208.4,1116.2
			c-2.6-2.8-6.4-4.4-10.9-4.4h-24l0-23.6h24c2.6,0,5-0.5,7-1.5v2.9c0,10.1,3.1,17.9,9.1,23.3
			C1211.5,1113.6,1209.8,1114.8,1208.4,1116.2z"/>
		<path class="st1" d="M1412.8,1084.6h-16.5c3.4-2.6,5.4-6.7,5.4-11.8v-14.9c0-8.8-5.9-14.7-14.7-14.7h-27.4
			c-25.7,0-34.9,15.4-34.9,29.8v6.2c0,4,0.6,7.4,1.6,10.2c-6.4,5.4-10.3,13.8-10.3,23.9v10.4c0,19.9,13.5,32.8,34.5,32.8h36.1
			c19.2,0,32-11.7,33.1-30.1c4.8-2.3,7.7-7,7.7-13.2v-14C1427.5,1090.5,1421.6,1084.6,1412.8,1084.6z"/>
		<path class="st1" d="M1730.9,1088.9c0.9-2.7,1.4-5.9,1.4-9.6v-6.2c0-11.1-4.5-29.8-34.9-29.8H1656c-5.5,0-9.8,2.3-12.3,6.1
			c-2.5-3.8-6.9-6.1-12.3-6.1h-60.2c-6,0-10.7,2.8-13,7.4c-2.3-4.6-7-7.4-13-7.4h-19.3c-8.8,0-14.7,5.9-14.7,14.7v17.8
			c-1.3-0.3-2.8-0.4-4.4-0.4h-5.4c-1.6,0-3.1,0.2-4.4,0.4v-17.8c0-8.8-5.9-14.7-14.7-14.7h-20c-8.8,0-14.7,5.9-14.7,14.7v50.1
			c0,5.9,0,11.5,2.9,19.5l6.4,17.8c2.4,7,8.2,11.4,15.1,11.4h17.1c6.6,0,11.9-3.5,14.4-9.3c2.4,5.8,8,9.3,14.9,9.3h17.2
			c6.6,0,12.1-4.2,14.6-11.3l6.1-16.7v13.3c0,8.8,5.9,14.7,14.7,14.7h60.2c5.5,0,9.8-2.3,12.3-6.1c2.5,3.8,6.9,6.1,12.3,6.1h49.8
			c30.6,0,35.2-19.6,35.2-31.3v-11.9C1741,1100.6,1736.5,1093.2,1730.9,1088.9z M1634.8,1087.4c2.5-0.5,4.7-1.6,6.5-3.1v31.2
			c-1.9-1.6-4.2-2.7-6.9-3.2c0.7-1.8,1.1-3.8,1.1-6.1v-13.9C1635.5,1090.6,1635.3,1088.9,1634.8,1087.4z"/>
		<path class="st1" d="M2285.7,1043.2h-19.5c-8.8,0-14.7,5.9-14.7,14.7v1l-7.6-8.7c-4.1-4.8-8.9-7-15.2-7h-13.5
			c-8.8,0-14.7,5.9-14.7,14.7v33.2c-2.6-2.5-6.2-3.9-10.5-3.9h-2.4c5.3-2.1,8.7-7,8.7-13.6v-15.7c0-8.8-5.9-14.7-14.7-14.7h-32.4
			c-19.9,0-30.8,6.6-36.4,15.3v-0.6c0-8.8-5.9-14.7-14.7-14.7H2043c-6,0-10.7,2.8-13,7.4c-2.3-4.6-7-7.4-13-7.4h-36.3
			c-13.3,0-23.7,4.3-30,12c-1.1-7.3-6.6-12-14.5-12h-60.2c-8.8,0-14.7,5.9-14.7,14.7v4.2c-4.9-10.4-15.8-18.8-38.4-18.8h-43.7
			c-8.8,0-14.7,5.9-14.7,14.7v84c0,8.8,5.9,14.7,14.7,14.7h43.7c22.5,0,33.5-8.4,38.4-18.8v4.2c0,8.8,5.9,14.7,14.7,14.7h60.2
			c4.7,0,8.6-1.7,11.2-4.6c2.6,2.9,6.4,4.6,11.2,4.6h41c12.8,0,22.9-4,29.3-11.1c1.4,6.8,6.8,11.1,14.3,11.1h55.2
			c8.8,0,14.7-5.9,14.7-14.7v-0.6c5.6,8.7,16.5,15.3,36.4,15.3h40.9c5.7,0,10.1-2.5,12.6-6.6c2.5,4.1,6.9,6.6,12.6,6.6h19.5
			c8.8,0,14.7-5.9,14.7-14.7v-15l2.2,2.6v12.4c0,8.8,5.9,14.7,14.7,14.7h19.5c8.8,0,14.7-5.9,14.7-14.7v-84
			C2300.4,1049.1,2294.5,1043.2,2285.7,1043.2z M1815.5,1112.1h-1.5V1088h1.5V1112.1z M1947.3,1116.7c-2-2.3-4.8-3.8-8.1-4.4
			c0.7-1.8,1.1-3.8,1.1-6.1v-13.9c0-1.8-0.2-3.5-0.7-5c1.5-0.3,2.9-0.8,4.2-1.5v3.8c0,10.1,3.1,17.9,9.1,23.3
			C1950.6,1113.7,1948.7,1115,1947.3,1116.7z M2045.8,1111.8h-2.8c-2.5,0-4.8,0.5-6.7,1.4v-3.1c0-11-3.6-19.2-10.7-24.6
			c1.8-1.2,3.3-2.9,4.3-4.9c2.3,4.7,7,7.5,13.1,7.5h2.8V1111.8z M2095.6,1111.8v-23.6h2.6c3.6,0,6.8-1,9.2-2.8v29.2
			c-2.4-1.8-5.6-2.8-9.2-2.8H2095.6z M2156.8,1094.9l0-6.7h7.2C2160.8,1089.5,2158.3,1091.8,2156.8,1094.9z"/>
	</g>
	<path d="M75.3,1146.6c-3.2,0-4.7-1.4-4.7-4.7v-15.2c0-3.2,1.4-4.7,4.7-4.7h34.9c2.2,0,3.4-1.7,3.4-3.8c0-3-1.2-4.1-3.4-4.4
		l-19.5-2.7c-12.2-1.8-20.1-7-20.1-21.5V1076c0-14.8,10-22.8,26.8-22.8h36.3c3.2,0,4.7,1.4,4.7,4.7v15.4c0,3.2-1.4,4.7-4.7,4.7
		h-30.2c-2.2,0-3.5,1.6-3.5,3.9c0,2.3,1.3,3.9,3.5,4.2l19.3,2.6c12.2,1.8,20.2,7,20.2,21.5v13.6c0,14.8-10.1,22.8-26.8,22.8H75.3z"
		/>
	<path d="M155.2,1141.9v-15.4c0-3.2,1.4-4.7,4.7-4.7h12.8v-43.6h-12.8c-3.2,0-4.7-1.4-4.7-4.7v-15.7c0-3.2,1.4-4.7,4.7-4.7h55.2
		c3.2,0,4.7,1.4,4.7,4.7v15.7c0,3.2-1.4,4.7-4.7,4.7h-12.6v43.6h12.6c3.2,0,4.7,1.4,4.7,4.7v15.4c0,3.2-1.4,4.7-4.7,4.7h-55.2
		C156.6,1146.6,155.2,1145.1,155.2,1141.9z"/>
	<path d="M266.2,1146.6c-21.8,0-31.9-8.4-31.9-26.5v-40.5c0-18,10.1-26.5,31.9-26.5h32.4c3.2,0,4.7,1.4,4.7,4.7v15.7
		c0,3.2-1.4,4.7-4.7,4.7h-27c-5.4,0-7.9,2.1-7.9,6.5v31c0,4.4,1.9,6.4,6,6.4h12.6v-20.2c0-3.2,1.4-4.7,4.7-4.7h20.1
		c3.2,0,4.7,1.4,4.7,4.7v40.1c0,3.2-1.4,4.7-4.7,4.7H266.2z"/>
	<path d="M332.2,1146.6c-3.2,0-4.7-1.4-4.7-4.7v-84c0-3.2,1.4-4.7,4.7-4.7h13.5c3.4,0,5.4,0.9,7.7,3.5l25.2,28.8v-27.6
		c0-3.2,1.4-4.7,4.7-4.7h19.5c3.2,0,4.7,1.4,4.7,4.7v84c0,3.2-1.4,4.7-4.7,4.7h-19.5c-3.2,0-4.7-1.4-4.7-4.7v-16l-22.2-26.8v42.8
		c0,3.2-1.4,4.7-4.7,4.7H332.2z"/>
	<path d="M427.5,1146.6c-3.2,0-4.7-1.4-4.7-4.7v-15.2c0-3.2,1.4-4.7,4.7-4.7h34.9c2.2,0,3.4-1.7,3.4-3.8c0-3-1.2-4.1-3.4-4.4
		l-19.5-2.7c-12.2-1.8-20.1-7-20.1-21.5V1076c0-14.8,10-22.8,26.8-22.8H486c3.2,0,4.7,1.4,4.7,4.7v15.4c0,3.2-1.4,4.7-4.7,4.7h-30.2
		c-2.2,0-3.5,1.6-3.5,3.9c0,2.3,1.3,3.9,3.5,4.2l19.3,2.6c12.2,1.8,20.2,7,20.2,21.5v13.6c0,14.8-10.1,22.8-26.8,22.8H427.5z"/>
	<path d="M514,1159.5c-3.2,0-4.7-1.3-4.7-4.7v-5.2c0-3.2,1.4-4.7,4.7-4.7h8.9c2.3,0,3.5-1.3,3.5-3.6v-1.9h-14.1
		c-3.2,0-4.7-1.4-4.7-4.7v-19.2c0-3.2,1.4-4.7,4.7-4.7h26.2c3.2,0,4.7,1.4,4.7,4.7v24.4c0,13.2-7.5,19.6-19.2,19.6H514z"/>
	<path d="M617.6,1146.6c-21.8,0-31.9-8.4-31.9-26.5v-40.5c0-18,10.1-26.5,31.9-26.5h32.4c3.2,0,4.7,1.4,4.7,4.7v15.7
		c0,3.2-1.4,4.7-4.7,4.7h-27c-5.4,0-7.9,2.1-7.9,6.5v31c0,4.4,1.9,6.4,6,6.4h12.6v-20.2c0-3.2,1.4-4.7,4.7-4.7h20.1
		c3.2,0,4.7,1.4,4.7,4.7v40.1c0,3.2-1.4,4.7-4.7,4.7H617.6z"/>
	<path d="M683.7,1146.6c-3.2,0-4.7-1.4-4.7-4.7v-84c0-3.2,1.4-4.7,4.7-4.7h43.2c19.5,0,25.5,8.8,25.5,21.7v6
		c0,7.3-1.8,12.4-7.3,14.8c9.5,1,15.7,7.9,15.7,18.8v27.5c0,3.2-1.4,4.7-4.7,4.7H736c-3.2,0-4.7-1.4-4.7-4.7v-19.8
		c0-3.9-1.3-5.6-4.9-5.6h-18.2v25.4c0,3.2-1.4,4.7-4.7,4.7H683.7z M708.3,1093.1h9.7c4.5,0,5.7-2.6,5.7-6.1v-4.4
		c0-3.5-1.2-6.1-5.7-6.1h-9.7V1093.1z"/>
	<path d="M797.1,1146.6h-19.1c-3.2,0-4.7-1.4-4.7-4.7v-34.2c0-5.2,1.6-11.7,5.1-20.8l11.3-29.4c1-3,3.1-4.3,6.6-4.3h34.9
		c3.4,0,5.4,1.3,6.5,4.3l11.3,29.4c3.5,9.1,5.1,15.6,5.1,20.8v34.2c0,3.2-1.4,4.7-4.7,4.7h-19.6c-3.5,0-5.1-1.4-5.1-4.7v-18.2h-23
		v18.2C801.8,1145.1,800.4,1146.6,797.1,1146.6z M803.1,1100.1h20.4l-6.1-19.7c-0.6-1.6-1.4-2.2-2.5-2.2h-3.2c-1,0-1.8,0.6-2.5,2.2
		L803.1,1100.1z"/>
	<path d="M874.7,1146.6c-3.2,0-4.7-1.4-4.7-4.7v-84c0-3.2,1.4-4.7,4.7-4.7h39.7c23.6,0,30.6,10.2,30.6,25.3v16.6
		c0,15-7,25.3-30.6,25.3h-14.9v21.5c0,3.2-1.4,4.7-4.7,4.7H874.7z M899.2,1097h11.7c5.1,0,6.1-3,6.1-6.4v-6.9c0-3.4-1-6.4-6.1-6.4
		h-11.7V1097z"/>
	<path d="M963.1,1146.6c-3.2,0-4.7-1.4-4.7-4.7v-84c0-3.2,1.4-4.7,4.7-4.7h20.1c3.2,0,4.7,1.4,4.7,4.7v28.1h21.7v-28.1
		c0-3.2,1.4-4.7,4.7-4.7h20.1c3.2,0,4.7,1.4,4.7,4.7v84c0,3.2-1.4,4.7-4.7,4.7h-20.1c-3.2,0-4.7-1.4-4.7-4.7v-28.8h-21.7v28.8
		c0,3.2-1.4,4.7-4.7,4.7H963.1z"/>
	<path d="M1054.8,1141.9v-15.4c0-3.2,1.4-4.7,4.7-4.7h12.8v-43.6h-12.8c-3.2,0-4.7-1.4-4.7-4.7v-15.7c0-3.2,1.4-4.7,4.7-4.7h55.2
		c3.2,0,4.7,1.4,4.7,4.7v15.7c0,3.2-1.4,4.7-4.7,4.7h-12.6v43.6h12.6c3.2,0,4.7,1.4,4.7,4.7v15.4c0,3.2-1.4,4.7-4.7,4.7h-55.2
		C1056.2,1146.6,1054.8,1145.1,1054.8,1141.9z"/>
	<path d="M1165.8,1146.6c-21.8,0-31.9-8.4-31.9-26.5v-40.3c0-18.2,10.1-26.6,31.9-26.6h31.6c3.2,0,4.7,1.4,4.7,4.7v15.7
		c0,3.2-1.4,4.7-4.7,4.7h-26.1c-5.4,0-7.9,2.1-7.9,6.5v30.9c0,4.3,2.5,6.2,7.9,6.2h26.1c3.2,0,4.7,1.4,4.7,4.7v15.4
		c0,3.2-1.4,4.7-4.7,4.7H1165.8z"/>
	<path d="M1219.1,1146.6c-3.2,0-4.7-1.4-4.7-4.7v-15.2c0-3.2,1.4-4.7,4.7-4.7h34.9c2.2,0,3.4-1.7,3.4-3.8c0-3-1.2-4.1-3.4-4.4
		l-19.5-2.7c-12.2-1.8-20.1-7-20.1-21.5V1076c0-14.8,10-22.8,26.8-22.8h36.3c3.2,0,4.7,1.4,4.7,4.7v15.4c0,3.2-1.4,4.7-4.7,4.7
		h-30.2c-2.2,0-3.5,1.6-3.5,3.9c0,2.3,1.3,3.9,3.5,4.2l19.3,2.6c12.2,1.8,20.2,7,20.2,21.5v13.6c0,14.8-10.1,22.8-26.8,22.8H1219.1z
		"/>
	<path d="M1378.1,1122.3c3.8,0,4.9-1.7,4.9-5.2v-17.9c0-3.2,1.4-4.7,4.7-4.7h25.2c3.2,0,4.7,1.3,4.7,4.7v14c0,3.2-1.4,4.7-4.7,4.7
		h-3v5.8c0,13.9-8.2,22.8-23.2,22.8h-36.1c-16,0-24.5-8.9-24.5-22.8v-10.4c0-12.2,7-19.2,16.3-20.1c-5.7-2.5-7.7-7.4-7.7-14v-6.2
		c0-11.4,7.3-19.8,24.9-19.8h27.4c3.2,0,4.7,1.4,4.7,4.7v14.9c0,3.2-1.4,4.7-4.7,4.7h-18.9c-4.1,0-4.9,1.8-4.9,3.9v2.7
		c0,2.1,0.8,3.9,4.9,3.9h1.9c3.2,0,4.7,1.4,4.7,4.7v13.4c0,3.2-1.4,4.7-4.7,4.7h-10.4c-4.1,0-4.9,1.7-4.9,3.8v4
		c0,2.1,0.8,3.9,4.9,3.9H1378.1z"/>
	<path d="M1545.1,1053.2c3.2,0,4.7,1.4,4.7,4.7v50.3c0,5.6,0,9.7-2.3,16.1l-6.5,17.6c-0.9,2.6-2.5,4.7-5.2,4.7h-17.2
		c-2.9,0-5.2-1.2-6-3.9l-6-21.1c-0.5-1.7-1.3-2.2-2.3-2.2h-1.2c-1,0-1.8,0.5-2.3,2.2l-6.1,21.1c-0.8,2.6-2.7,3.9-5.4,3.9h-17.1
		c-2.9,0-4.8-1.9-5.7-4.7l-6.5-17.9c-2.3-6.4-2.3-10.5-2.3-16.1v-50.1c0-3.2,1.4-4.7,4.7-4.7h20c3.2,0,4.7,1.4,4.7,4.7v47.7
		l7.5-16.3c1.4-3,3.5-4,6.9-4h5.4c3.4,0,5.4,1,6.9,4l7.5,16.3v-47.7c0-3.2,1.3-4.7,4.7-4.7H1545.1z"/>
	<path d="M1571.2,1146.6c-3.2,0-4.7-1.4-4.7-4.7v-84c0-3.2,1.4-4.7,4.7-4.7h60.2c3.2,0,4.7,1.4,4.7,4.7v15.2c0,3.2-1.4,4.7-4.7,4.7
		h-35.8v10h25.3c3.2,0,4.7,1.4,4.7,4.7v13.9c0,3.2-1.4,4.7-4.7,4.7h-25.3v11.2h35.8c3.2,0,4.7,1.4,4.7,4.7v15.2
		c0,3.2-1.4,4.7-4.7,4.7H1571.2z"/>
	<path d="M1656,1146.6c-3.2,0-4.7-1.4-4.7-4.7v-84c0-3.2,1.4-4.7,4.7-4.7h41.4c17,0,24.9,6.2,24.9,19.8v6.2c0,7.3-2.5,11.8-7.7,14
		c11.2,1,16.3,7.4,16.3,20.1v11.9c0,14.5-7.9,21.3-25.2,21.3H1656z M1680.5,1089.2h11c3.4,0,4.9-1.7,4.9-5.2v-3.6
		c0-3.5-1.6-5.2-4.9-5.2h-11V1089.2z M1680.5,1124.5h16.9c3.4,0,4.9-1.7,4.9-5.2v-5.1c0-3.5-1.6-5.1-4.9-5.1h-16.9V1124.5z"/>
	<path d="M1779.2,1146.6c-3.2,0-4.7-1.4-4.7-4.7v-84c0-3.2,1.4-4.7,4.7-4.7h43.7c21.8,0,31.9,8.4,31.9,26.5v40.5
		c0,18-10.1,26.5-31.9,26.5H1779.2z M1804,1122.1h15.4c4.1,0,6.1-1.9,6.1-6.4v-31.5c0-4.3-1.9-6.2-6.1-6.2H1804V1122.1z"/>
	<path d="M1875.9,1146.6c-3.2,0-4.7-1.4-4.7-4.7v-84c0-3.2,1.4-4.7,4.7-4.7h60.2c3.2,0,4.7,1.4,4.7,4.7v15.2c0,3.2-1.4,4.7-4.7,4.7
		h-35.8v10h25.3c3.2,0,4.7,1.4,4.7,4.7v13.9c0,3.2-1.4,4.7-4.7,4.7h-25.3v11.2h35.8c3.2,0,4.7,1.4,4.7,4.7v15.2
		c0,3.2-1.4,4.7-4.7,4.7H1875.9z"/>
	<path d="M1958.4,1146.6c-3.2,0-4.7-1.4-4.7-4.7v-15.2c0-3.2,1.4-4.7,4.7-4.7h34.9c2.2,0,3.4-1.7,3.4-3.8c0-3-1.2-4.1-3.4-4.4
		l-19.5-2.7c-12.2-1.8-20.1-7-20.1-21.5V1076c0-14.8,10-22.8,26.8-22.8h36.3c3.2,0,4.7,1.4,4.7,4.7v15.4c0,3.2-1.4,4.7-4.7,4.7
		h-30.2c-2.2,0-3.5,1.6-3.5,3.9c0,2.3,1.3,3.9,3.5,4.2l19.3,2.6c12.2,1.8,20.2,7,20.2,21.5v13.6c0,14.8-10.1,22.8-26.8,22.8H1958.4z
		"/>
	<path d="M2038.3,1141.9v-15.4c0-3.2,1.4-4.7,4.7-4.7h12.8v-43.6H2043c-3.2,0-4.7-1.4-4.7-4.7v-15.7c0-3.2,1.4-4.7,4.7-4.7h55.2
		c3.2,0,4.7,1.4,4.7,4.7v15.7c0,3.2-1.4,4.7-4.7,4.7h-12.6v43.6h12.6c3.2,0,4.7,1.4,4.7,4.7v15.4c0,3.2-1.4,4.7-4.7,4.7H2043
		C2039.7,1146.6,2038.3,1145.1,2038.3,1141.9z"/>
	<path d="M2149.3,1146.6c-21.8,0-31.9-8.4-31.9-26.5v-40.5c0-18,10.1-26.5,31.9-26.5h32.4c3.2,0,4.7,1.4,4.7,4.7v15.7
		c0,3.2-1.4,4.7-4.7,4.7h-27c-5.4,0-7.9,2.1-7.9,6.5v31c0,4.4,1.9,6.4,6,6.4h12.6v-20.2c0-3.2,1.4-4.7,4.7-4.7h20.1
		c3.2,0,4.7,1.4,4.7,4.7v40.1c0,3.2-1.4,4.7-4.7,4.7H2149.3z"/>
	<path d="M2215.3,1146.6c-3.2,0-4.7-1.4-4.7-4.7v-84c0-3.2,1.4-4.7,4.7-4.7h13.5c3.4,0,5.4,0.9,7.7,3.5l25.2,28.8v-27.6
		c0-3.2,1.4-4.7,4.7-4.7h19.5c3.2,0,4.7,1.4,4.7,4.7v84c0,3.2-1.4,4.7-4.7,4.7h-19.5c-3.2,0-4.7-1.4-4.7-4.7v-16l-22.2-26.8v42.8
		c0,3.2-1.4,4.7-4.7,4.7H2215.3z"/>
</g>
</svg>
