<?xml version="1.0" encoding="utf-8"?>
<!-- Generator: Adobe Illustrator 24.0.2, SVG Export Plug-In . SVG Version: 6.00 Build 0)  -->
<svg version="1.1" id="Layer_1" xmlns="http://www.w3.org/2000/svg" xmlns:xlink="http://www.w3.org/1999/xlink" x="0px" y="0px"
	 viewBox="0 0 1389.6 1388.2" style="enable-background:new 0 0 1389.6 1388.2;" xml:space="preserve">
<style type="text/css">
	.st0{fill:none;}
	.st1{fill:#FFFFFF;}
	.st2{fill:#063F5C;}
	.st3{fill:#F5AC1B;}
	.st4{fill:#BCBEC0;}
	.st5{fill:#439EBD;}
	.st6{clip-path:url(#SVGID_2_);}
	.st7{fill:url(#SVGID_3_);}
	.st8{fill:url(#SVGID_4_);}
	.st9{clip-path:url(#SVGID_6_);}
	.st10{fill:url(#SVGID_7_);}
	.st11{fill:url(#SVGID_8_);}
	.st12{clip-path:url(#SVGID_10_);}
	.st13{fill:url(#SVGID_11_);}
	.st14{fill:url(#SVGID_12_);}
	.st15{clip-path:url(#SVGID_14_);}
	.st16{fill:url(#SVGID_15_);}
</style>
<g>
	<defs>
		<rect id="SVGID_1_" x="-2833.2" y="-270.1" width="2362.1" height="1249.2"/>
	</defs>
	<clipPath id="SVGID_2_">
		<use xlink:href="#SVGID_1_"  style="overflow:visible;"/>
	</clipPath>
	<g class="st6">
		<radialGradient id="SVGID_3_" cx="-2358.4138" cy="467.5997" r="2781.8594" gradientUnits="userSpaceOnUse">
			<stop  offset="0" style="stop-color:#FFFFFF;stop-opacity:0.7"/>
			<stop  offset="4.632131e-02" style="stop-color:#FFFFFF;stop-opacity:0.6662"/>
			<stop  offset="0.4115" style="stop-color:#FFFFFF;stop-opacity:0.4"/>
			<stop  offset="1" style="stop-color:#F9ED32;stop-opacity:0"/>
		</radialGradient>
		<path class="st7" d="M-2357.9,3249.5h-0.5c-50.5,0-101.6-1.4-151.8-4.1l150.5-2774.1c7.2,0.4-7.3,0,0,0l0,0l15.6,2778.2
			c-4.4,0-8.9,0-13.3,0L-2357.9,3249.5z M-2177.6,3243.6l-182.1-2772.4c8-0.5-7.8,1,0,0l348.5,2756.6
			C-2066.2,3234.7-2122.2,3240-2177.6,3243.6z M-2676.7,3231.3c-55.3-6.3-111.1-14.4-165.8-24.1l482.8-2736.1c7.7,1.3-7.8-0.9,0,0
			L-2676.7,3231.3z M-1845.7,3202.1l-514-2730.9c7.5-1.4-7.4,1.9,0,0l678.2,2695C-1735.6,3179.8-1790.9,3191.8-1845.7,3202.1z
			 M-3006.8,3173.2c-54.2-13-108.8-27.8-162.2-44l809.3-2657.9c7.3,2.2-7.4-1.8,0,0L-3006.8,3173.2z M-1519.9,3120.5l-839.8-2649.3
			c7.2-2.3-7.1,2.7,0,0l998.5,2593.8C-1413.3,3085.1-1466.7,3103.7-1519.9,3120.5z M-3328.5,3075.3
			c-52.4-19.5-104.8-40.8-155.9-63.5l1124.7-2540.6c7,3.1-7.2-2.7,0,0L-3328.5,3075.3z M-1206.6,3000.2l-1153.1-2529
			c7-3.2-6.8,3.6,0,0l1303.4,2455C-1105.4,2952.3-1156,2977.2-1206.6,3000.2z M-3635.9,2939.2c-49.4-25.6-98.7-53-146.5-81.5
			l1422.7-2386.4c6.8,4-6.9-3.6,0,0L-3635.9,2939.2z M-910.8,2843.4l-1449-2372.1c6.7-4.1-6.5,4.5,0,0L-770.6,2752
			C-816.2,2783.7-863.4,2814.5-910.8,2843.4z M-3923.8,2767.4c-45.9-31.3-91.5-64.4-135.5-98.4l1699.5-2197.8c6.2,4.8-6.5-4.5,0,0
			L-3923.8,2767.4z M-636.3,2652.5L-2359.7,471.2c6.2-4.9-5.9,5.3,0,0l1851.4,2073.8C-549.7,2582-592.8,2618.1-636.3,2652.5z
			 M-4188.3,2562.9c-41.8-36.5-83-74.7-122.5-113.7l1951.1-1978c5.7,5.6-6-5.2,0,0L-4188.3,2562.9z M-387,2430.3L-2359.7,471.2
			c5.6-5.6-5.3,6,0,0l2087,1837.2C-309.4,2350-347.9,2391-387,2430.3z M-4426.2,2328.5c-37.1-41.2-73.5-84.1-108-127.5
			l2174.6-1729.8c5,6.2-5.3-5.9,0,0L-4426.2,2328.5z M-165.8,2179.8L-2359.7,471.2c4.9-6.2-4.5,6.5,0,0L-66.8,2044.9
			C-98.3,2090.6-131.6,2136-165.8,2179.8z M-4634.5,2067.3c-32-45.4-62.9-92.4-92.1-139.6l2366.9-1456.4c4.1,6.7-4.5-6.4,0,0
			L-4634.5,2067.3z M24.1,1904.2L-2359.7,471.2c4-6.7-3.6,6.9,0,0L106.4,1758C80.6,1807.3,52.9,1856.5,24.1,1904.2z M-4810.2,1782.6
			c-26.3-49-51.5-99.4-74.8-149.9l2525.3-1161.4c3.2,7-3.7-6.8,0,0L-4810.2,1782.6z M179.9,1606.9L-2359.7,471.2c3.2-7-2.7,7.2,0,0
			l2603.8,980.2C224.4,1503.6,202.8,1555.9,179.9,1606.9z M-4950.6,1478.4c-20.3-52-39.2-105.3-56.3-158.4l2647.2-848.8
			c2.3,7.3-2.8-7.1,0,0L-4950.6,1478.4z M298.9,1292.2l-2658.6-821c2.3-7.3-1.8,7.4,0,0l2703.5,659
			C330.5,1184.4,315.4,1238.9,298.9,1292.2z M-5053.5,1158.6c-13.8-54-26.2-109.1-36.7-163.9l2730.5-523.5c1.5,7.6-1.9-7.4,0,0
			L-5053.5,1158.6z M378.7,966l-2738.4-494.8c1.4-7.7-0.9,7.8,0,0L403.6,800.3C397,855.6,388.6,911.3,378.7,966z M-5116.9,829.2
			c-7.2-55-12.8-110.9-16.6-166.3l2773.8-191.6c0.6,8-1-7.8,0,0L-5116.9,829.2z M418.5,633.9l-2778.2-162.7c0.5-8.1,0,8.3,0,0
			c0-2.9,0.1,2.9,0,0l2782.5-61.7c0.4,19.3,0.6,38.8,0.6,58.1C423.4,522.9,421.8,578.8,418.5,633.9z M-5140.1,496.4
			c-0.1-9.6-0.2-19.2-0.2-28.8c0-45.7,1.1-91.9,3.4-137.4l2777.2,141c-0.3,6.7,0-6.8,0,0c0,1.5,0-1.4,0,0L-5140.1,496.4z
			 M-2359.7,471.2C-2360.3,463.3-2358.6,479-2359.7,471.2L396.1,76.8c7.8,54.9,13.9,110.9,18.4,166.3L-2359.7,471.2z M-2359.7,471.2
			l-2764.1-307.5c6-55.3,13.8-111.1,23.2-165.9L-2359.7,471.2C-2361,478.9-2358.8,463.4-2359.7,471.2z M-2359.7,471.2
			C-2361.2,463.7-2357.7,478.6-2359.7,471.2L329.2-252c14.4,53.8,27.3,108.8,38.4,163.5L-2359.7,471.2z M-2359.7,471.2
			l-2707.7-637.9c12.7-54.3,27.2-109,43.2-162.4L-2359.7,471.2C-2361.9,478.6-2358,463.8-2359.7,471.2z M-2359.7,471.2
			C-2362.1,464-2356.8,478.3-2359.7,471.2L222.9-570.7c20.8,51.7,40.3,104.8,58,157.7L-2359.7,471.2z M-2359.7,471.2l-2611.5-959.8
			c19.2-52.4,40.3-105,62.6-156.2L-2359.7,471.2C-2362.8,478.3-2357.1,464-2359.7,471.2z M-2359.7,471.2
			C-2363,464.2-2356,478-2359.7,471.2L79.3-873.3c26.8,48.7,52.5,98.9,76.3,149.1L-2359.7,471.2z M-2359.7,471.2L-4836.8-796.7
			c25.3-49.6,52.5-99.1,80.8-147.1L-2359.7,471.2C-2363.7,478-2356.2,464.3-2359.7,471.2z M-2359.7,471.2
			C-2363.9,464.5-2355.1,477.6-2359.7,471.2L-99.4-1156.1c32.4,45,63.9,91.7,93.5,138.6L-2359.7,471.2z M-2359.7,471.2
			l-2306.9-1556.7c31-46.1,63.9-91.8,97.7-136L-2359.7,471.2C-2364.5,477.5-2355.3,464.7-2359.7,471.2z M-2359.7,471.2
			C-2364.7,465.1-2354.3,477.1-2359.7,471.2l2049.3-1886.3c37.5,40.8,74.3,83.3,109.4,126.3L-2359.7,471.2z M-2359.7,471.2
			l-2103.7-1822.4c36.2-41.9,74.2-83.3,112.9-123L-2359.7,471.2C-2365.3,477-2354.5,465.2-2359.7,471.2z M-2359.7,471.2
			C-2365.5,465.7-2353.6,476.4-2359.7,471.2L-550.8-1647c42.1,36,83.7,73.8,123.6,112.3L-2359.7,471.2z M-2359.7,471.2
			l-1870.6-2061.5c41-37.3,83.7-73.9,126.9-108.7L-2359.7,471.2C-2365.9,476.2-2353.8,465.9-2359.7,471.2z M-2359.7,471.2
			C-2366,466.5-2353.1,475.6-2359.7,471.2l1542.1-2320c46.2,30.8,92.2,63.4,136.5,96.9L-2359.7,471.2z M-2359.7,471.2L-3970.1-1800
			c45.2-32.2,92-63.4,139.1-92.8L-2359.7,471.2C-2366.4,475.4-2353.3,466.7-2359.7,471.2z M-2359.7,471.2
			C-2366.4,467.3-2352.8,474.7-2359.7,471.2l1252.3-2488.7c49.8,25.1,99.4,52,147.6,80.1L-2359.7,471.2z M-2359.7,471.2
			l-1326.7-2448.4c48.9-26.6,99.2-52,149.6-75.6L-2359.7,471.2C-2366.7,474.5-2352.9,467.5-2359.7,471.2z M-2359.7,471.2
			C-2366.8,468.2-2352.5,473.8-2359.7,471.2l943.6-2621.5c52.5,18.9,105.2,39.7,156.5,61.8L-2359.7,471.2z M-2359.7,471.2
			L-3383-2119.2c51.9-20.6,105-39.8,158-57.1L-2359.7,471.2C-2367,473.6-2352.6,468.4-2359.7,471.2z M-2359.7,471.2
			C-2367,469.1-2352.2,472.9-2359.7,471.2l621.1-2715.9c54.4,12.4,109.1,26.6,162.7,42.3L-2359.7,471.2z M-2359.7,471.2l-704.1-2695
			c53.9-14.1,109-26.8,163.7-37.6L-2359.7,471.2C-2367.2,472.7-2352.3,469.3-2359.7,471.2z M-2359.7,471.2
			C-2367.4,470-2351.9,472-2359.7,471.2l290.5-2770.5c55.3,5.7,111.1,13.2,166,22.3L-2359.7,471.2z M-2359.7,471.2l-375-2760.1
			c55-7.5,111-13.4,166.4-17.5L-2359.7,471.2C-2367.6,471.8-2351.9,470.2-2359.7,471.2z M-2359.7,471.2
			C-2367.9,470.9-2351.1,471.1-2359.7,471.2l-42.2-2785.2c14.4-0.2,29.1-0.3,43.4-0.3c40.8,0,82.1,0.9,122.7,2.7L-2359.7,471.2z"/>
	</g>
</g>
<g>
	<defs>
		<circle id="SVGID_5_" cx="2278" cy="350.1" r="619.1"/>
	</defs>
	<clipPath id="SVGID_4_">
		<use xlink:href="#SVGID_5_"  style="overflow:visible;"/>
	</clipPath>
	<g style="clip-path:url(#SVGID_4_);">
		<radialGradient id="SVGID_6_" cx="1919.7512" cy="396.2383" r="1048.121" gradientUnits="userSpaceOnUse">
			<stop  offset="0" style="stop-color:#FFFFFF;stop-opacity:0.7"/>
			<stop  offset="4.632131e-02" style="stop-color:#FFFFFF;stop-opacity:0.6662"/>
			<stop  offset="0.4115" style="stop-color:#FFFFFF;stop-opacity:0.4"/>
			<stop  offset="1" style="stop-color:#F9ED32;stop-opacity:0"/>
		</radialGradient>
		<path style="fill:url(#SVGID_6_);" d="M1919.9,1444.4h-0.2c-19,0-38.3-0.5-57.2-1.5l56.7-1045.2c2.7,0.1-2.8,0,0,0l0,0l5.9,1046.7
			c-1.7,0-3.4,0-5,0L1919.9,1444.4z M1987.9,1442.2l-68.6-1044.6c3-0.2-3,0.4,0,0l131.3,1038.6
			C2029.9,1438.8,2008.8,1440.8,1987.9,1442.2z M1799.8,1437.5c-20.8-2.4-41.9-5.4-62.5-9.1l181.9-1030.9c2.9,0.5-2.9-0.3,0,0
			L1799.8,1437.5z M2112.9,1426.5L1919.3,397.6c2.8-0.5-2.8,0.7,0,0L2174.8,1413C2154.4,1418.1,2133.6,1422.7,2112.9,1426.5z
			 M1675.4,1415.6c-20.4-4.9-41-10.5-61.1-16.6l304.9-1001.4c2.8,0.8-2.8-0.7,0,0L1675.4,1415.6z M2235.7,1395.8l-316.4-998.2
			c2.7-0.9-2.7,1,0,0l376.2,977.3C2275.8,1382.4,2255.7,1389.5,2235.7,1395.8z M1554.2,1378.7c-19.7-7.3-39.5-15.4-58.7-23.9
			l423.8-957.2c2.6,1.2-2.7-1,0,0L1554.2,1378.7z M2353.7,1350.5l-434.4-952.9c2.6-1.2-2.6,1.4,0,0l491.1,925
			C2391.8,1332.4,2372.8,1341.8,2353.7,1350.5z M1438.4,1327.4c-18.6-9.6-37.2-20-55.2-30.7l536-899.1c2.5,1.5-2.6-1.4,0,0
			L1438.4,1327.4z M2465.2,1291.4l-545.9-893.8c2.5-1.5-2.4,1.7,0,0l598.7,859.3C2500.8,1268.9,2483,1280.5,2465.2,1291.4z
			 M1330,1262.7c-17.3-11.8-34.5-24.3-51-37.1l640.3-828.1c2.4,1.8-2.5-1.7,0,0L1330,1262.7z M2568.6,1219.4l-649.3-821.8
			c2.3-1.9-2.2,2,0,0l697.6,781.4C2601.2,1192.9,2585,1206.5,2568.6,1219.4z M1230.3,1185.7c-15.7-13.7-31.3-28.2-46.1-42.8
			l735.1-745.3c2.1,2.1-2.3-2,0,0L1230.3,1185.7z M2662.5,1135.7l-743.3-738.1c2.1-2.1-2,2.3,0,0l786.3,692.2
			C2691.8,1105.5,2677.3,1120.9,2662.5,1135.7z M1140.7,1097.4c-14-15.5-27.7-31.7-40.7-48l819.3-651.7c1.9,2.3-2-2.2,0,0
			L1140.7,1097.4z M2745.9,1041.3l-826.6-643.7c1.8-2.4-1.7,2.4,0,0l863.9,592.9C2771.3,1007.8,2758.7,1024.9,2745.9,1041.3z
			 M1062.2,998.9c-12-17.1-23.7-34.8-34.7-52.6l891.8-548.7c1.6,2.5-1.7-2.4,0,0L1062.2,998.9z M2817.4,937.5l-898.1-539.9
			c1.5-2.5-1.4,2.6,0,0l929.2,484.8C2838.7,901,2828.3,919.5,2817.4,937.5z M996,891.7c-9.9-18.5-19.4-37.5-28.2-56.5l951.4-437.6
			c1.2,2.6-1.4-2.6,0,0L996,891.7z M2876.1,825.5l-956.8-427.9c1.2-2.6-1,2.7,0,0l981,369.3C2892.9,786.6,2884.7,806.3,2876.1,825.5
			z M943.1,777.1c-7.6-19.6-14.8-39.7-21.2-59.7l997.4-319.8c0.9,2.7-1-2.7,0,0L943.1,777.1z M2920.9,706.9L1919.3,397.6
			c0.9-2.8-0.7,2.8,0,0l1018.6,248.3C2932.8,666.3,2927.2,686.8,2920.9,706.9z M904.3,656.6c-5.2-20.3-9.9-41.1-13.8-61.7
			l1028.8-197.2c0.5,2.8-0.7-2.8,0,0L904.3,656.6z M2951,584L1919.3,397.6c0.5-2.9-0.4,2.9,0,0l1041.1,124
			C2957.9,542.4,2954.8,563.4,2951,584z M880.5,532.5c-2.7-20.7-4.8-41.8-6.3-62.7l1045.1-72.2c0.2,3-0.4-2.9,0,0L880.5,532.5z
			 M2966,458.9l-1046.8-61.3c0.2-3.1,0,3.1,0,0c0-1.1,0,1.1,0,0l1048.4-23.3c0.2,7.3,0.2,14.6,0.2,21.9
			C2967.9,417.1,2967.2,438.1,2966,458.9z M871.7,407.1c0-3.6-0.1-7.2-0.1-10.9c0-17.2,0.4-34.6,1.3-51.8l1046.4,53.1
			c-0.1,2.5,0-2.6,0,0c0,0.5,0-0.5,0,0L871.7,407.1z M1919.3,397.6C1919,394.6,1919.7,400.5,1919.3,397.6L2957.6,249
			c2.9,20.7,5.3,41.8,6.9,62.6L1919.3,397.6z M1919.3,397.6L877.8,281.8c2.3-20.8,5.2-41.9,8.7-62.5L1919.3,397.6
			C1918.8,400.5,1919.6,394.7,1919.3,397.6z M1919.3,397.6C1918.7,394.8,1920,400.4,1919.3,397.6l1013.1-272.5
			c5.4,20.3,10.3,41,14.5,61.6L1919.3,397.6z M1919.3,397.6L899.1,157.3c4.8-20.5,10.3-41.1,16.3-61.2L1919.3,397.6
			C1918.4,400.4,1919.9,394.8,1919.3,397.6z M1919.3,397.6C1918.4,394.9,1920.3,400.3,1919.3,397.6l973-392.6
			c7.8,19.5,15.2,39.5,21.8,59.4L1919.3,397.6z M1919.3,397.6L935.3,36c7.2-19.8,15.2-39.6,23.6-58.8L1919.3,397.6
			C1918.1,400.3,1920.3,394.9,1919.3,397.6z M1919.3,397.6C1918,395,1920.7,400.2,1919.3,397.6L2838.2-109
			c10.1,18.3,19.8,37.2,28.8,56.2L1919.3,397.6z M1919.3,397.6L986-80.1c9.5-18.7,19.8-37.3,30.4-55.4L1919.3,397.6
			C1917.8,400.1,1920.6,395,1919.3,397.6z M1919.3,397.6C1917.7,395.1,1921,400,1919.3,397.6l851.6-613.1
			c12.2,17,24.1,34.5,35.2,52.2L1919.3,397.6z M1919.3,397.6l-869.2-586.5c11.7-17.4,24.1-34.6,36.8-51.2L1919.3,397.6
			C1917.5,400,1920.9,395.1,1919.3,397.6z M1919.3,397.6C1917.4,395.3,1921.3,399.8,1919.3,397.6l772.1-710.7
			c14.1,15.4,28,31.4,41.2,47.6L1919.3,397.6z M1919.3,397.6L1126.7-289c13.7-15.8,28-31.4,42.6-46.3L1919.3,397.6
			C1917.2,399.8,1921.2,395.3,1919.3,397.6z M1919.3,397.6C1917.1,395.5,1921.6,399.6,1919.3,397.6l681.5-798.1
			c15.9,13.6,31.5,27.8,46.6,42.3L1919.3,397.6z M1919.3,397.6l-704.8-776.7c15.5-14.1,31.5-27.8,47.8-41L1919.3,397.6
			C1916.9,399.5,1921.5,395.6,1919.3,397.6z M1919.3,397.6C1916.9,395.8,1921.7,399.3,1919.3,397.6l581-874.1
			c17.4,11.6,34.7,23.9,51.4,36.5L1919.3,397.6z M1919.3,397.6l-606.8-855.7c17-12.1,34.7-23.9,52.4-35L1919.3,397.6
			C1916.7,399.2,1921.7,395.9,1919.3,397.6z M1919.3,397.6C1916.7,396.1,1921.9,398.9,1919.3,397.6l471.8-937.7
			c18.7,9.4,37.5,19.6,55.6,30.2L1919.3,397.6z M1919.3,397.6l-499.9-922.5c18.4-10,37.4-19.6,56.4-28.5L1919.3,397.6
			C1916.6,398.8,1921.8,396.2,1919.3,397.6z M1919.3,397.6C1916.6,396.5,1922,398.6,1919.3,397.6l355.5-987.7
			c19.8,7.1,39.6,15,59,23.3L1919.3,397.6z M1919.3,397.6l-385.5-976c19.5-7.7,39.6-15,59.5-21.5L1919.3,397.6
			C1916.5,398.5,1921.9,396.5,1919.3,397.6z M1919.3,397.6C1916.5,396.8,1922.1,398.2,1919.3,397.6l234-1023.3
			c20.5,4.7,41.1,10,61.3,15.9L1919.3,397.6z M1919.3,397.6L1654-617.8c20.3-5.3,41.1-10.1,61.7-14.2L1919.3,397.6
			C1916.4,398.2,1922.1,396.9,1919.3,397.6z M1919.3,397.6C1916.4,397.1,1922.2,397.9,1919.3,397.6l109.4-1043.9
			c20.8,2.2,41.9,5,62.5,8.4L1919.3,397.6z M1919.3,397.6L1778-642.3c20.7-2.8,41.8-5,62.7-6.6L1919.3,397.6
			C1916.3,397.8,1922.2,397.2,1919.3,397.6z M1919.3,397.6C1916.2,397.5,1922.5,397.6,1919.3,397.6l-15.9-1049.4
			c5.4-0.1,10.9-0.1,16.4-0.1c15.4,0,30.9,0.3,46.2,1L1919.3,397.6z"/>
	</g>
</g>
<g>
	<path class="st0" d="M1142.2,1182.8c-63.9,63.9-138.3,113.3-221.4,147c-80.2,32.5-164.9,49-251.8,49c-86.9,0-171.6-16.5-251.8-49
		c-83-33.7-157.5-83.1-221.4-147C132.1,1119,82.7,1044.5,49,961.5C16.5,881.3,0,796.6,0,709.7s16.5-171.6,49-251.8
		c33.7-83,83.1-157.5,147-221.4s138.3-113.3,221.4-147c80.2-32.5,164.9-49,251.8-49s171.6,16.5,251.8,49
		c83,33.7,157.5,83.1,221.4,147c63.9,63.9,113.3,138.3,147,221.4c32.5,80.2,49,164.9,49,251.8c0,86.9-16.5,171.6-49,251.8
		C1255.5,1044.5,1206.1,1119,1142.2,1182.8z"/>
</g>
<path d="M695.5,1388.2c-93.7,0-184.6-18.4-270.2-54.6c-82.7-35-156.9-85-220.6-148.7C141,1121.2,90.9,1047,56,964.3
	C19.8,878.7,1.4,787.8,1.4,694.1S19.8,509.5,56,423.9c35-82.7,85-156.9,148.7-220.6c63.7-63.7,137.9-113.8,220.6-148.7
	C510.9,18.4,601.8,0,695.5,0s184.6,18.4,270.2,54.6c82.7,35,156.9,85,220.6,148.7C1250,267,1300.1,341.2,1335,423.9
	c36.2,85.6,54.6,176.5,54.6,270.2s-18.4,184.6-54.6,270.2c-35,82.7-85,156.9-148.7,220.6c-63.7,63.7-137.9,113.8-220.6,148.7
	C880.1,1369.9,789.2,1388.2,695.5,1388.2z"/>
<circle class="st5" cx="695.5" cy="694.1" r="619.1"/>
<g>
	<defs>
		<circle id="SVGID_9_" cx="700.3" cy="692" r="619.1"/>
	</defs>
	<clipPath id="SVGID_7_">
		<use xlink:href="#SVGID_9_"  style="overflow:visible;"/>
	</clipPath>
	<g style="clip-path:url(#SVGID_7_);">
		<radialGradient id="SVGID_8_" cx="342.0172" cy="738.0734" r="1048.121" gradientUnits="userSpaceOnUse">
			<stop  offset="0" style="stop-color:#FFFFFF;stop-opacity:0.7"/>
			<stop  offset="4.632131e-02" style="stop-color:#FFFFFF;stop-opacity:0.6662"/>
			<stop  offset="0.4115" style="stop-color:#FFFFFF;stop-opacity:0.4"/>
			<stop  offset="1" style="stop-color:#F9ED32;stop-opacity:0"/>
		</radialGradient>
		<path class="st11" d="M342.2,1786.2H342c-19,0-38.3-0.5-57.2-1.5l56.7-1045.2c2.7,0.1-2.8,0,0,0l0,0l5.9,1046.7c-1.7,0-3.4,0-5,0
			L342.2,1786.2z M410.2,1784L341.5,739.4c3-0.2-3,0.4,0,0l131.3,1038.6C452.1,1780.7,431,1782.6,410.2,1784z M222.1,1779.4
			c-20.8-2.4-41.9-5.4-62.5-9.1L341.5,739.4c2.9,0.5-2.9-0.3,0,0L222.1,1779.4z M535.2,1768.3L341.5,739.4c2.8-0.5-2.8,0.7,0,0
			l255.5,1015.4C576.7,1759.9,555.8,1764.5,535.2,1768.3z M97.7,1757.5c-20.4-4.9-41-10.5-61.1-16.6L341.5,739.4
			c2.8,0.8-2.8-0.7,0,0L97.7,1757.5z M657.9,1737.6L341.5,739.4c2.7-0.9-2.7,1,0,0l376.2,977.3
			C698.1,1724.3,678,1731.3,657.9,1737.6z M-23.5,1720.6c-19.7-7.3-39.5-15.4-58.7-23.9l423.8-957.2c2.6,1.2-2.7-1,0,0L-23.5,1720.6
			z M776,1692.3L341.5,739.4c2.6-1.2-2.6,1.4,0,0l491.1,925C814.1,1674.2,795,1683.6,776,1692.3z M-139.3,1669.3
			c-18.6-9.6-37.2-20-55.2-30.7l536-899.1c2.5,1.5-2.6-1.4,0,0L-139.3,1669.3z M887.5,1633.2L341.5,739.4c2.5-1.5-2.4,1.7,0,0
			l598.7,859.3C923.1,1610.7,905.3,1622.3,887.5,1633.2z M-247.8,1604.6c-17.3-11.8-34.5-24.3-51-37.1l640.3-828.1
			c2.4,1.8-2.5-1.7,0,0L-247.8,1604.6z M990.8,1561.3L341.5,739.4c2.3-1.9-2.2,2,0,0l697.6,781.4
			C1023.5,1534.7,1007.2,1548.3,990.8,1561.3z M-347.4,1527.5c-15.7-13.7-31.3-28.2-46.1-42.8l735.1-745.3c2.1,2.1-2.3-2,0,0
			L-347.4,1527.5z M1084.8,1477.6L341.5,739.4c2.1-2.1-2,2.3,0,0l786.3,692.2C1114,1447.3,1099.5,1462.8,1084.8,1477.6z
			 M-437.1,1439.2c-14-15.5-27.7-31.7-40.7-48l819.3-651.7c1.9,2.3-2-2.2,0,0L-437.1,1439.2z M1168.1,1383.2L341.5,739.4
			c1.8-2.4-1.7,2.4,0,0l863.9,592.9C1193.6,1349.6,1181,1366.7,1168.1,1383.2z M-515.5,1340.8c-12-17.1-23.7-34.8-34.7-52.6
			l891.8-548.7c1.6,2.5-1.7-2.4,0,0L-515.5,1340.8z M1239.7,1279.3L341.5,739.4c1.5-2.5-1.4,2.6,0,0l929.2,484.8
			C1261,1242.8,1250.5,1261.4,1239.7,1279.3z M-581.7,1233.5c-9.9-18.5-19.4-37.5-28.2-56.5l951.4-437.6c1.2,2.6-1.4-2.6,0,0
			L-581.7,1233.5z M1298.4,1167.3L341.5,739.4c1.2-2.6-1,2.7,0,0l981,369.3C1315.1,1128.4,1307,1148.1,1298.4,1167.3z
			 M-634.6,1118.9c-7.6-19.6-14.8-39.7-21.2-59.7l997.4-319.8c0.9,2.7-1-2.7,0,0L-634.6,1118.9z M1343.2,1048.8L341.5,739.4
			c0.9-2.8-0.7,2.8,0,0l1018.6,248.3C1355.1,1008.2,1349.4,1028.7,1343.2,1048.8z M-673.4,998.4c-5.2-20.3-9.9-41.1-13.8-61.7
			L341.5,739.4c0.5,2.8-0.7-2.8,0,0L-673.4,998.4z M1373.3,925.9L341.5,739.4c0.5-2.9-0.4,2.9,0,0l1041.1,124
			C1380.2,884.2,1377,905.2,1373.3,925.9z M-697.3,874.3c-2.7-20.7-4.8-41.8-6.3-62.7l1045.1-72.2c0.2,3-0.4-2.9,0,0L-697.3,874.3z
			 M1388.3,800.7L341.5,739.4c0.2-3.1,0,3.1,0,0c0-1.1,0,1.1,0,0l1048.4-23.3c0.2,7.3,0.2,14.6,0.2,21.9
			C1390.1,758.9,1389.5,780,1388.3,800.7z M-706,748.9c0-3.6-0.1-7.2-0.1-10.9c0-17.2,0.4-34.6,1.3-51.8l1046.4,53.1
			c-0.1,2.5,0-2.6,0,0c0,0.5,0-0.5,0,0L-706,748.9z M341.5,739.4C341.3,736.5,341.9,742.4,341.5,739.4l1038.3-148.6
			c2.9,20.7,5.3,41.8,6.9,62.6L341.5,739.4z M341.5,739.4L-699.9,623.6c2.3-20.8,5.2-41.9,8.7-62.5L341.5,739.4
			C341,742.3,341.9,736.5,341.5,739.4z M341.5,739.4C341,736.6,342.3,742.2,341.5,739.4L1354.6,467c5.4,20.3,10.3,41,14.5,61.6
			L341.5,739.4z M341.5,739.4L-678.6,499.1c4.8-20.5,10.3-41.1,16.3-61.2L341.5,739.4C340.7,742.2,342.2,736.6,341.5,739.4z
			 M341.5,739.4C340.6,736.7,342.6,742.1,341.5,739.4l973-392.6c7.8,19.5,15.2,39.5,21.8,59.4L341.5,739.4z M341.5,739.4
			l-983.9-361.6c7.2-19.8,15.2-39.6,23.6-58.8L341.5,739.4C340.4,742.1,342.5,736.7,341.5,739.4z M341.5,739.4
			C340.3,736.8,342.9,742,341.5,739.4l918.9-506.6c10.1,18.3,19.8,37.2,28.8,56.2L341.5,739.4z M341.5,739.4l-933.3-477.7
			c9.5-18.7,19.8-37.3,30.4-55.4L341.5,739.4C340,742,342.9,736.8,341.5,739.4z M341.5,739.4C339.9,736.9,343.3,741.9,341.5,739.4
			l851.6-613.1c12.2,17,24.1,34.5,35.2,52.2L341.5,739.4z M341.5,739.4l-869.2-586.5c11.7-17.4,24.1-34.6,36.8-51.2L341.5,739.4
			C339.7,741.8,343.2,737,341.5,739.4z M341.5,739.4C339.6,737.1,343.6,741.7,341.5,739.4l772.1-710.7c14.1,15.4,28,31.4,41.2,47.6
			L341.5,739.4z M341.5,739.4L-451.1,52.8c13.7-15.8,28-31.4,42.6-46.3L341.5,739.4C339.4,741.6,343.5,737.2,341.5,739.4z
			 M341.5,739.4C339.4,737.3,343.8,741.4,341.5,739.4l681.5-798.1c15.9,13.6,31.5,27.8,46.6,42.3L341.5,739.4z M341.5,739.4
			L-363.2-37.3c15.5-14.1,31.5-27.8,47.8-41L341.5,739.4C339.2,741.3,343.7,737.4,341.5,739.4z M341.5,739.4
			C339.2,737.6,344,741.1,341.5,739.4l581-874.1c17.4,11.6,34.7,23.9,51.4,36.5L341.5,739.4z M341.5,739.4l-606.8-855.7
			c17-12.1,34.7-23.9,52.4-35L341.5,739.4C339,741,344,737.7,341.5,739.4z M341.5,739.4C339,738,344.1,740.8,341.5,739.4
			l471.8-937.7c18.7,9.4,37.5,19.6,55.6,30.2L341.5,739.4z M341.5,739.4L-158.3-183c18.4-10,37.4-19.6,56.4-28.5L341.5,739.4
			C338.9,740.7,344.1,738,341.5,739.4z M341.5,739.4C338.9,738.3,344.3,740.4,341.5,739.4L697-248.3c19.8,7.1,39.6,15,59,23.3
			L341.5,739.4z M341.5,739.4L-44-236.5c19.5-7.7,39.6-15,59.5-21.5L341.5,739.4C338.8,740.3,344.2,738.4,341.5,739.4z M341.5,739.4
			C338.8,738.6,344.3,740.1,341.5,739.4l234-1023.3c20.5,4.7,41.1,10,61.3,15.9L341.5,739.4z M341.5,739.4L76.3-275.9
			c20.3-5.3,41.1-10.1,61.7-14.2L341.5,739.4C338.7,740,344.3,738.7,341.5,739.4z M341.5,739.4C338.6,739,344.5,739.7,341.5,739.4
			L451-304.4c20.8,2.2,41.9,5,62.5,8.4L341.5,739.4z M341.5,739.4L200.3-300.5c20.7-2.8,41.8-5,62.7-6.6L341.5,739.4
			C338.6,739.7,344.5,739,341.5,739.4z M341.5,739.4C338.5,739.3,344.8,739.4,341.5,739.4L325.7-309.9c5.4-0.1,10.9-0.1,16.4-0.1
			c15.4,0,30.9,0.3,46.2,1L341.5,739.4z"/>
	</g>
</g>
<radialGradient id="SVGID_10_" cx="389.878" cy="667.0573" r="355.4205" gradientUnits="userSpaceOnUse">
	<stop  offset="0" style="stop-color:#FFFFFF;stop-opacity:0.7"/>
	<stop  offset="1" style="stop-color:#FFFFFF;stop-opacity:0"/>
</radialGradient>
<circle style="fill:url(#SVGID_10_);" cx="389.9" cy="667.1" r="355.4"/>
<g>
	<path d="M619.2,692.3l13-50.4v-94.3l-22.7,72.6l4.8,35.8l-34.2,36.3H439l5.5-45.2l-23.3-75.2v43.5l9.8,40l-34.7,36.9h-120
		l12.6-50.3v-4.8l-8.9,9l-42.4,31.8c-5.6,4.3-20.6,14.3-36.6,14.3h-57.3c-15.7,0-30.3-5.8-40.1-15.9l-18-18.8
		c-3.8-3.9-6.8-7.7-9.2-11.6c-5.3-8.6-8.1-18.2-8.1-27.9v-73.7c0-14.3,5.9-28.1,16.6-38.8l24.6-24.9l2.7-2.7l17.3-16.4
		c10.7-10,24.5-15.3,39.9-15.3h60c15.1,0,28.8,5.1,39.4,14.8l15.4,13.9l29.3-28.7h519.7l15.1,91.5l-19.2,19.2v8.9l29.4-6l-21.7,98
		l-32.7,34.4H619.2z"/>
	<polygon points="1119.2,692.3 1120.2,688.4 1116.6,692.3 997.5,692.3 1005.7,659.1 1004.3,659.1 972.7,692.3 853.6,692.3 
		866.2,641.7 866.2,519.9 855.7,480.7 891.2,446.2 993.7,446.2 1011.5,476.2 1042.5,446.2 1153.7,446.2 1152.6,450.7 1157.2,446.2 
		1333.4,446.2 1348.5,537.7 1329.2,556.9 1329.2,565.8 1358.6,559.8 1337,657.8 1304.2,692.3 	"/>
	<polygon points="284.7,935.1 285.9,927.7 278.6,935.1 149.9,935.1 178,878.7 214.7,757.3 210.4,723.1 245.1,689.1 392.7,689.1 
		387,730.8 423.7,851.8 446.2,897.1 408.4,935.1 	"/>
	<path d="M1114.5,935.1l-13.3-16.8l-15.6,16.8H965.3l12.6-50.6v-4.2l-8.6,8.7l-42.4,31.8c-5.6,4.3-20.6,14.3-36.6,14.3h-57.3
		c-15.7,0-30.3-5.8-40.1-15.9L779,904.8l-28.6,30.4h-120l12.6-50.3v-1.2l-34.6,34.4c-10.2,10.2-26.5,17.1-40.4,17.1H456.5l-21-93.8
		l14.3-14.5c-4.8-8.5-7.3-17.9-7.3-27.3v-19.5c0-15.8,5.7-30,15.7-39l24.4-21.5c0.8-0.9,1.5-1.5,2-1.9l0.1-0.1l0.3-0.2l16.1-14.2
		c10.6-9.2,24.3-14.1,39.8-14.1h106.8l2.8,16.9l17.2-16.9h120.2l-12.5,47.4v10.6l23.3-23.6l2.7-2.7l17.3-16.4
		c10.7-10,24.5-15.3,39.9-15.3h60c15.1,0,28.8,5.1,39.4,14.8l15.3,13.8l29.5-28.6h79.4l13.4,15.6l16.2-15.6h120.5l-13,47.2v163.3
		l-33.5,35.6H1114.5z"/>
	<path class="st2" d="M294.4,568.7V587l6.9,22.7l-26.6,26.8L233,667.9c-6.8,5.2-18.4,11.8-29,11.8h-57.3c-13.2,0-24.1-4.9-31-12.1
		l-18.1-18.9c-3-3-5.5-6-7.4-9.3c-4.1-6.6-6.3-14-6.3-21.4v-73.7c0-11.2,4.7-21.6,12.9-29.9l24.7-24.9l2.5-2.5l17.3-16.4
		c8.5-7.9,19.5-11.8,31.2-11.8h60c11.2,0,22.2,3.6,31,11.5l17,15.3c9,7.9,13.7,17,14,26.8v18.1l-6.8,6.6h15.9L294.4,568.7z"/>
	<path d="M171.9,644c-10.2,0-19.4-3.6-26.6-10.5l-17.3-16.4c-7.4-7.1-11.5-16.3-11.5-25.9v-73.7c0-9.6,4.1-18.8,11.5-25.9l17.3-16.4
		c7.2-6.9,16.4-10.5,26.6-10.5h60c9.9,0,19,3.6,26.5,10.4l17.2,15.3c7.7,6.7,11.6,14.2,11.6,22.2v12.6l-66.6,14.8v-15.1
		c0-3.3-5.2-6-11.5-6H196c-6.9,0-11.5,4.3-11.5,10.7v49.6c0,6.4,4.6,10.7,11.5,10.7h11.8c7.2,0,12.9-4.7,12.9-10.7v-11.4l-7.3-24
		h80.8l-6.9,23.9V588l5.9,19.3l-35,26.5c-8.7,6.9-17.3,10.2-26.2,10.2H171.9z"/>
	<path class="st1" d="M288.1,605.7l-5.2-17V567l5.5-18.9h-69l5.8,18.9v12.1c0,8.5-7.7,15.1-17.3,15.1H196c-9.3,0-15.9-6.3-15.9-15.1
		v-49.6c0-8.8,6.6-15.1,15.9-15.1h13.2c9,0,15.9,4.4,15.9,10.4v9.6l57.8-12.9v-9c0-6.8-3.6-13.2-10.1-18.9l-17.3-15.3
		c-6.6-6-14.8-9.3-23.6-9.3h-60c-9,0-17.3,3.3-23.6,9.3l-17.3,16.4c-6.6,6.3-10.1,14.2-10.1,22.7v73.7c0,8.5,3.6,16.4,10.1,22.7
		l17.3,16.4c6.3,6,14.5,9.3,23.6,9.3h60c7.9,0,15.6-3,23.6-9.3L288.1,605.7z"/>
	<polygon class="st2" points="411.6,492 411.6,616.9 420.1,651.7 393.8,679.6 295.5,679.6 304.5,643.5 304.5,518.5 295.2,484.8 
		321.8,458.8 420.4,458.8 	"/>
	<polygon points="330,644 337.1,617.7 337.1,490.9 330,464.5 411.5,464.5 404.8,490.9 404.8,617.7 411.5,644 	"/>
	<polygon class="st1" points="335.7,468.9 341.5,490.3 341.5,618.3 335.7,639.6 405.9,639.6 400.4,618.3 400.4,490.3 405.9,468.9 	
		"/>
	<polygon class="st2" points="657.4,458.8 638.5,494.7 599.6,619.1 604,651.7 577.7,679.6 456.3,679.6 460.4,645.9 421.8,521.3 
		402.3,484.3 428.6,458.8 533.5,458.8 530.5,480.2 553,458.8 	"/>
	<polygon points="489.9,644 493.2,619.2 453.9,492.5 439.2,464.5 525.7,464.5 522.4,489.7 542.8,566.8 563.1,489.7 560.1,464.5 
		646.5,464.5 632.2,492.5 592.6,619.2 596.2,644 	"/>
	<polygon class="st1" points="588.1,618.8 628.1,490.9 639.3,468.9 565.1,468.9 567.5,490 542.9,584 517.9,490 520.7,468.9 
		446.4,468.9 457.9,490.9 497.7,618.8 494.9,639.6 591.1,639.6 	"/>
	<polygon class="st2" points="819.6,581.3 845.1,576.1 828.3,651.7 801.8,679.6 638.5,679.6 647.8,643.5 647.8,518.5 638.7,484.8 
		665.3,458.8 825.6,458.8 837.9,533.3 819.6,551.7 	"/>
	<polygon points="674.1,644 681.2,617.7 681.2,490.9 674.1,464.5 820.3,464.5 830.2,524.3 802.6,517.7 748.9,517.7 748.9,528.4 
		792.8,528.4 813.3,523.7 813.3,584.1 792.7,579.1 748.9,579.1 748.9,590.9 804.6,590.9 836.8,584.4 823.6,644 	"/>
	<polygon class="st1" points="820.1,639.6 831.1,590 805.1,595.2 744.5,595.2 744.5,574.7 793.3,574.7 808.9,578.5 808.9,529.2 
		793.3,532.8 744.5,532.8 744.5,513.3 803.1,513.3 824.8,518.5 816.6,468.9 679.8,468.9 685.6,490.3 685.6,618.3 679.8,639.6 	"/>
	<polygon class="st2" points="1132,616.6 1140.7,651.7 1114.2,679.6 1016.6,679.6 1025.7,643.2 1025.7,626.5 1032.5,619.4 
		1025.7,626.2 1025.7,626.5 1005.9,646.5 995.5,646.5 996.9,651.7 970.3,679.6 872.8,679.6 881.8,643.2 881.8,518.3 872.8,484.6 
		899.3,458.8 989.5,458.8 1014.4,500.7 1024,484.6 1050.6,458.8 1140.5,458.8 1132,491.7 	"/>
	<polygon points="1051.4,644 1058.5,617.7 1058.5,566.8 1028.6,613.1 1011.5,613.1 981.3,566.7 981.3,617.7 988,644 907.6,644 
		914.7,617.7 914.7,490.9 907.6,464.5 985.4,464.5 1019.9,523.5 1054.1,464.5 1131.9,464.5 1125.1,490.9 1125.1,617.7 1131.9,644 	
		"/>
	<polygon class="st1" points="1026.2,608.7 1062.9,552 1062.9,618.3 1057.2,639.6 1126.2,639.6 1120.7,618.3 1120.7,490.3 
		1126.2,468.9 1056.6,468.9 1019.9,532.2 982.9,468.9 913.3,468.9 919.1,490.3 919.1,618.3 913.3,639.6 982.4,639.6 976.9,618.3 
		976.9,552 1013.9,608.7 	"/>
	<polygon class="st2" points="1319.6,581.3 1345.1,576.1 1328.4,651.7 1301.8,679.6 1138.5,679.6 1147.8,643.5 1147.8,518.5 
		1138.8,484.8 1165.4,458.8 1325.7,458.8 1338,533.3 1319.6,551.7 	"/>
	<polygon points="1174.2,644 1181.3,617.7 1181.3,490.9 1174.2,464.5 1320.3,464.5 1330.2,524.3 1302.7,517.7 1248.9,517.7 
		1248.9,528.4 1292.8,528.4 1313.3,523.7 1313.3,584.1 1292.8,579.1 1248.9,579.1 1248.9,590.9 1304.7,590.9 1336.9,584.4 
		1323.7,644 	"/>
	<polygon class="st1" points="1320.2,639.6 1331.1,590 1305.1,595.2 1244.6,595.2 1244.6,574.7 1293.3,574.7 1308.9,578.5 
		1308.9,529.2 1293.3,532.8 1244.6,532.8 1244.6,513.3 1303.2,513.3 1324.8,518.5 1316.6,468.9 1179.9,468.9 1185.6,490.3 
		1185.6,618.3 1179.9,639.6 	"/>
	<polygon class="st2" points="411.9,856.5 430.8,894.6 403.2,922.5 299.6,922.5 305.4,888.8 304.8,887.2 300.2,887.2 301,894.6 
		273.3,922.5 170.3,922.5 189.7,883.3 227.5,758.4 223.7,727.7 250.3,701.7 378.2,701.7 374.1,731.8 	"/>
	<polygon points="334.5,886.9 338.1,861.7 336,853.8 292,853.8 289.8,861.7 293.1,886.9 208.1,886.9 222.1,859 260.3,732.3 
		257.4,707.4 370.6,707.4 367.4,732.3 405.6,859 419.9,886.9 	"/>
	<polygon class="st1" points="365.6,711.8 262.3,711.8 264.8,732.7 226.2,860.6 215.2,882.5 288.1,882.5 285.4,861.4 288.6,849.4 
		339.3,849.4 342.6,861.4 339.6,882.5 412.8,882.5 401.5,860.6 362.9,732.7 	"/>
	<polygon points="295.1,814 314.6,743.9 333.8,814 	"/>
	<polygon class="st2" points="314.6,758.1 328.8,810.2 300.1,810.2 	"/>
	<path class="st2" d="M640.9,786.9c11,8.8,15.9,20.5,15.9,31v20.3c0,10.4-3.8,21.6-12.3,29.3l-41.9,41.6
		c-7.7,7.7-20.3,13.4-31.5,13.4H469.6l-17.3-77.3l17-17.3c-1.9-1.9-3.6-4.1-4.9-6.3c-4.1-6.9-6.3-14.5-6.3-22.2v-19.5
		c0-11.2,3.6-22.5,11.5-29.6l25.2-22.2c0.3-0.5,0.8-0.8,1.4-1.4l16.2-14.2c8.8-7.7,20-11,31.5-11H640l12.3,73.7L640.9,786.9z"/>
	<path class="st2" d="M492.4,755.7c0-9,2.7-18.4,8.2-24.9C495.2,737.3,492.4,746.4,492.4,755.7z"/>
	<path d="M499.8,886.9l-13.2-59.9l32.7,6.4h52.2c4.5,0,7-0.4,8.3-0.8c-0.4-0.2-0.8-0.3-1.4-0.6l-59.4-21.6
		c-8.1-2.9-15.4-8.3-20.6-15.1c-5.2-6.8-8-14.8-8-22.4v-17c0-10.2,4-19.4,11.4-25.8l14.3-12.3c7.6-6.7,17.3-10.4,27.3-10.4h90.6
		l9.9,59.8l-32.4-6.3h-42.9c-5,0-7.4,0.6-8.5,1c0.4,0.2,1.1,0.6,2.1,1l59.7,21.1c16.9,6,27.9,20.8,27.9,37.6v17
		c0,10-4.3,19.6-11.4,25.8l-13.9,12.3c-7.5,6.6-17.5,10.4-27.3,10.4H499.8z"/>
	<path class="st1" d="M645.3,821.4c0-14.8-9.6-27.9-24.9-33.4l-59.7-21.1c-3.6-1.4-5.2-2.7-5.2-4.1v-1.9c0-2.7,4.4-4.4,13.2-4.4
		h43.3l26.6,5.2l-8.2-49.9h-86.9c-8.8,0-17.5,3.3-24.4,9.3l-14.2,12.3c-6.3,5.5-9.9,13.4-9.9,22.5v17c0,13.7,10.4,27.9,25.8,33.4
		L580,828c3.6,1.4,4.9,2.2,4.9,3.8v1.9c0,2.5-4.4,4.1-13.4,4.1h-52.6l-26.6-5.2l11,49.9H597c8.5,0,17.5-3.3,24.4-9.3l14-12.3
		c6.3-5.5,9.9-14,9.9-22.5V821.4z"/>
	<polygon class="st2" points="765.8,734.8 765.8,859.8 774.3,894.6 748,922.5 649.6,922.5 658.7,886.4 658.7,761.4 649.3,727.7 
		675.9,701.7 774.6,701.7 	"/>
	<polygon points="684.2,886.9 691.3,860.6 691.3,733.8 684.2,707.4 765.7,707.4 758.9,733.8 758.9,860.6 765.7,886.9 	"/>
	<polygon class="st1" points="689.9,711.8 695.6,733.2 695.6,861.2 689.9,882.5 760,882.5 754.6,861.2 754.6,733.2 760,711.8 	"/>
	<path class="st2" d="M983.6,811.6v18.4l6.9,22.7l-26.6,26.8l-41.6,31.2c-6.8,5.2-18.4,11.8-29,11.8h-57.3c-13.2,0-24.1-4.9-31-12.1
		l-18.1-18.9c-3-3-5.5-6-7.4-9.3c-4.1-6.6-6.3-14-6.3-21.4v-73.7c0-11.2,4.7-21.6,12.9-29.9l24.7-24.9l2.5-2.5l17.3-16.4
		c8.5-7.9,19.5-11.8,31.2-11.8h60c11.2,0,22.2,3.6,31,11.5l17,15.3c9,7.9,13.7,17,14,26.8v18.1l-6.8,6.6h15.9L983.6,811.6z"/>
	<path d="M861.1,886.9c-10.2,0-19.4-3.6-26.6-10.5L817.3,860c-7.4-7.1-11.5-16.3-11.5-25.9v-73.7c0-9.6,4.1-18.8,11.5-25.9
		l17.3-16.4c7.2-6.9,16.4-10.5,26.6-10.5h60c9.9,0,19,3.6,26.5,10.4l17.2,15.3c7.7,6.7,11.6,14.2,11.6,22.2V768l-66.6,14.8v-15.1
		c0-3.3-5.2-6-11.5-6h-13.2c-6.9,0-11.5,4.3-11.5,10.7V822c0,6.4,4.6,10.7,11.5,10.7H897c7.2,0,12.9-4.7,12.9-10.7v-11.4l-7.3-24
		h80.8l-6.9,23.9v20.4l5.9,19.3l-35,26.5c-8.7,6.9-17.3,10.2-26.3,10.2H861.1z"/>
	<path class="st1" d="M977.3,848.6l-5.2-17v-21.6l5.5-18.9h-69l5.8,18.9V822c0,8.5-7.7,15.1-17.3,15.1h-11.8
		c-9.3,0-15.9-6.3-15.9-15.1v-49.6c0-8.8,6.6-15.1,15.9-15.1h13.2c9,0,15.9,4.4,15.9,10.4v9.6l57.8-12.9v-9
		c0-6.8-3.6-13.2-10.1-18.9l-17.3-15.3c-6.6-6-14.8-9.3-23.6-9.3h-60c-9,0-17.3,3.3-23.6,9.3l-17.3,16.4
		c-6.6,6.3-10.1,14.2-10.1,22.7V834c0,8.5,3.6,16.4,10.1,22.7l17.3,16.4c6.3,6,14.5,9.3,23.6,9.3h60c7.9,0,15.6-3,23.6-9.3
		L977.3,848.6z"/>
	<polygon class="st2" points="1120,701.7 1218.9,701.7 1209.9,734.6 1209.9,894.6 1183.6,922.5 1123.6,922.5 1105,899 1083,922.5 
		984.4,922.5 993.4,886.1 993.4,761.1 984.4,727.4 1011,701.7 1079.5,701.7 1097.8,723.1 	"/>
	<polygon points="1153.1,886.9 1094,816.7 1094,860.6 1100.8,886.9 1019.2,886.9 1026.3,860.6 1026.3,733.8 1019.2,707.4 
		1076.3,707.4 1135.6,777.6 1135.6,733.8 1128.6,707.4 1210.4,707.4 1203.3,733.8 1203.3,886.9 	"/>
	<polygon class="st1" points="1025,711.8 1030.7,733.2 1030.7,861.2 1025,882.5 1095.1,882.5 1089.6,861.2 1089.6,804.7 
		1155.1,882.5 1198.9,882.5 1198.9,733.2 1204.7,711.8 1134.3,711.8 1140,733.2 1140,789.6 1074.3,711.8 	"/>
</g>
<g>
	<defs>
		<circle id="SVGID_13_" cx="2191.6" cy="2167.1" r="619.1"/>
	</defs>
	<clipPath id="SVGID_11_">
		<use xlink:href="#SVGID_13_"  style="overflow:visible;"/>
	</clipPath>
	<g style="clip-path:url(#SVGID_11_);">
		<radialGradient id="SVGID_12_" cx="1833.3802" cy="2213.2251" r="1048.121" gradientUnits="userSpaceOnUse">
			<stop  offset="0" style="stop-color:#FFFFFF;stop-opacity:0.7"/>
			<stop  offset="4.632131e-02" style="stop-color:#FFFFFF;stop-opacity:0.6662"/>
			<stop  offset="0.4115" style="stop-color:#FFFFFF;stop-opacity:0.4"/>
			<stop  offset="1" style="stop-color:#F9ED32;stop-opacity:0"/>
		</radialGradient>
		<path class="st14" d="M1833.6,3261.3h-0.2c-19,0-38.3-0.5-57.2-1.5l56.7-1045.2c2.7,0.1-2.8,0,0,0l0,0l5.9,1046.7
			c-1.7,0-3.4,0-5,0L1833.6,3261.3z M1901.5,3259.2l-68.6-1044.6c3-0.2-3,0.4,0,0l131.3,1038.6
			C1943.5,3255.8,1922.4,3257.8,1901.5,3259.2z M1713.5,3254.5c-20.8-2.4-41.9-5.4-62.5-9.1l181.9-1030.9c2.9,0.5-2.9-0.3,0,0
			L1713.5,3254.5z M2026.6,3243.5l-193.7-1028.9c2.8-0.5-2.8,0.7,0,0L2088.4,3230C2068,3235.1,2047.2,3239.6,2026.6,3243.5z
			 M1589.1,3232.6c-20.4-4.9-41-10.5-61.1-16.6l304.9-1001.4c2.8,0.8-2.8-0.7,0,0L1589.1,3232.6z M2149.3,3212.8l-316.4-998.2
			c2.7-0.9-2.7,1,0,0l376.2,977.3C2189.5,3199.4,2169.3,3206.4,2149.3,3212.8z M1467.9,3195.7c-19.7-7.3-39.5-15.4-58.7-23.9
			l423.8-957.2c2.6,1.2-2.7-1,0,0L1467.9,3195.7z M2267.3,3167.4l-434.4-952.9c2.6-1.2-2.6,1.4,0,0l491.1,925
			C2305.5,3149.4,2286.4,3158.8,2267.3,3167.4z M1352.1,3144.4c-18.6-9.6-37.2-20-55.2-30.7l536-899.1c2.5,1.5-2.6-1.4,0,0
			L1352.1,3144.4z M2378.8,3108.3l-545.9-893.8c2.5-1.5-2.4,1.7,0,0l598.7,859.3C2414.4,3085.9,2396.7,3097.5,2378.8,3108.3z
			 M1243.6,3079.7c-17.3-11.8-34.5-24.3-51-37.1l640.3-828.1c2.4,1.8-2.5-1.7,0,0L1243.6,3079.7z M2482.2,3036.4l-649.3-821.8
			c2.3-1.9-2.2,2,0,0l697.6,781.4C2514.8,3009.9,2498.6,3023.5,2482.2,3036.4z M1143.9,3002.7c-15.7-13.7-31.3-28.2-46.1-42.8
			l735.1-745.3c2.1,2.1-2.3-2,0,0L1143.9,3002.7z M2576.2,2952.7l-743.3-738.1c2.1-2.1-2,2.3,0,0l786.3,692.2
			C2605.4,2922.5,2590.9,2937.9,2576.2,2952.7z M1054.3,2914.4c-14-15.5-27.7-31.7-40.7-48l819.3-651.7c1.9,2.3-2-2.2,0,0
			L1054.3,2914.4z M2659.5,2858.3l-826.6-643.7c1.8-2.4-1.7,2.4,0,0l863.9,592.9C2684.9,2824.7,2672.4,2841.8,2659.5,2858.3z
			 M975.8,2815.9c-12-17.1-23.7-34.8-34.7-52.6l891.8-548.7c1.6,2.5-1.7-2.4,0,0L975.8,2815.9z M2731,2754.5l-898.1-539.9
			c1.5-2.5-1.4,2.6,0,0l929.2,484.8C2752.3,2718,2741.9,2736.5,2731,2754.5z M909.6,2708.7c-9.9-18.5-19.4-37.5-28.2-56.5
			l951.4-437.6c1.2,2.6-1.4-2.6,0,0L909.6,2708.7z M2789.7,2642.5l-956.8-427.9c1.2-2.6-1,2.7,0,0l981,369.3
			C2806.5,2603.6,2798.4,2623.3,2789.7,2642.5z M856.7,2594.1c-7.6-19.6-14.8-39.7-21.2-59.7l997.4-319.8c0.9,2.7-1-2.7,0,0
			L856.7,2594.1z M2834.6,2523.9l-1001.7-309.3c0.9-2.8-0.7,2.8,0,0l1018.6,248.3C2846.5,2483.3,2840.8,2503.8,2834.6,2523.9z
			 M818,2473.6c-5.2-20.3-9.9-41.1-13.8-61.7l1028.8-197.2c0.5,2.8-0.7-2.8,0,0L818,2473.6z M2864.6,2401l-1031.8-186.4
			c0.5-2.9-0.4,2.9,0,0l1041.1,124C2871.5,2359.4,2868.4,2380.4,2864.6,2401z M794.1,2349.5c-2.7-20.7-4.8-41.8-6.3-62.7
			l1045.1-72.2c0.2,3-0.4-2.9,0,0L794.1,2349.5z M2879.6,2275.9l-1046.8-61.3c0.2-3.1,0,3.1,0,0c0-1.1,0,1.1,0,0l1048.4-23.3
			c0.2,7.3,0.2,14.6,0.2,21.9C2881.5,2234.1,2880.9,2255.1,2879.6,2275.9z M785.3,2224.1c0-3.6-0.1-7.2-0.1-10.9
			c0-17.2,0.4-34.6,1.3-51.8l1046.4,53.1c-0.1,2.5,0-2.6,0,0c0,0.5,0-0.5,0,0L785.3,2224.1z M1832.9,2214.6
			C1832.7,2211.6,1833.3,2217.5,1832.9,2214.6L2871.2,2066c2.9,20.7,5.3,41.8,6.9,62.6L1832.9,2214.6z M1832.9,2214.6L791.5,2098.7
			c2.3-20.8,5.2-41.9,8.7-62.5L1832.9,2214.6C1832.4,2217.5,1833.2,2211.7,1832.9,2214.6z M1832.9,2214.6
			C1832.3,2211.8,1833.6,2217.4,1832.9,2214.6L2846,1942.1c5.4,20.3,10.3,41,14.5,61.6L1832.9,2214.6z M1832.9,2214.6L812.7,1974.2
			c4.8-20.5,10.3-41.1,16.3-61.2L1832.9,2214.6C1832.1,2217.4,1833.6,2211.8,1832.9,2214.6z M1832.9,2214.6
			C1832,2211.9,1834,2217.3,1832.9,2214.6l973-392.6c7.8,19.5,15.2,39.5,21.8,59.4L1832.9,2214.6z M1832.9,2214.6L848.9,1853
			c7.2-19.8,15.2-39.6,23.6-58.8L1832.9,2214.6C1831.7,2217.3,1833.9,2211.9,1832.9,2214.6z M1832.9,2214.6
			C1831.6,2212,1834.3,2217.2,1832.9,2214.6l918.9-506.6c10.1,18.3,19.8,37.2,28.8,56.2L1832.9,2214.6z M1832.9,2214.6l-933.3-477.7
			c9.5-18.7,19.8-37.3,30.4-55.4L1832.9,2214.6C1831.4,2217.1,1834.2,2212,1832.9,2214.6z M1832.9,2214.6
			C1831.3,2212.1,1834.6,2217,1832.9,2214.6l851.6-613.1c12.2,17,24.1,34.5,35.2,52.2L1832.9,2214.6z M1832.9,2214.6l-869.2-586.5
			c11.7-17.4,24.1-34.6,36.8-51.2L1832.9,2214.6C1831.1,2217,1834.6,2212.1,1832.9,2214.6z M1832.9,2214.6
			C1831,2212.3,1834.9,2216.8,1832.9,2214.6l772.1-710.7c14.1,15.4,28,31.4,41.2,47.6L1832.9,2214.6z M1832.9,2214.6L1040.3,1528
			c13.7-15.8,28-31.4,42.6-46.3L1832.9,2214.6C1830.8,2216.8,1834.9,2212.3,1832.9,2214.6z M1832.9,2214.6
			C1830.7,2212.5,1835.2,2216.5,1832.9,2214.6l681.5-798.1c15.9,13.6,31.5,27.8,46.6,42.3L1832.9,2214.6z M1832.9,2214.6
			l-704.8-776.7c15.5-14.1,31.5-27.8,47.8-41L1832.9,2214.6C1830.6,2216.5,1835.1,2212.6,1832.9,2214.6z M1832.9,2214.6
			C1830.5,2212.8,1835.4,2216.2,1832.9,2214.6l581-874.1c17.4,11.6,34.7,23.9,51.4,36.5L1832.9,2214.6z M1832.9,2214.6l-606.8-855.7
			c17-12.1,34.7-23.9,52.4-35L1832.9,2214.6C1830.4,2216.2,1835.3,2212.9,1832.9,2214.6z M1832.9,2214.6
			C1830.4,2213.1,1835.5,2215.9,1832.9,2214.6l471.8-937.7c18.7,9.4,37.5,19.6,55.6,30.2L1832.9,2214.6z M1832.9,2214.6L1333,1292.1
			c18.4-10,37.4-19.6,56.4-28.5L1832.9,2214.6C1830.3,2215.8,1835.5,2213.2,1832.9,2214.6z M1832.9,2214.6
			C1830.2,2213.4,1835.6,2215.6,1832.9,2214.6l355.5-987.7c19.8,7.1,39.6,15,59,23.3L1832.9,2214.6z M1832.9,2214.6l-385.5-976
			c19.5-7.7,39.6-15,59.5-21.5L1832.9,2214.6C1830.2,2215.5,1835.6,2213.5,1832.9,2214.6z M1832.9,2214.6
			C1830.1,2213.8,1835.7,2215.2,1832.9,2214.6l234-1023.3c20.5,4.7,41.1,10,61.3,15.9L1832.9,2214.6z M1832.9,2214.6l-265.3-1015.4
			c20.3-5.3,41.1-10.1,61.7-14.2L1832.9,2214.6C1830.1,2215.2,1835.7,2213.9,1832.9,2214.6z M1832.9,2214.6
			C1830,2214.1,1835.8,2214.9,1832.9,2214.6l109.4-1043.9c20.8,2.2,41.9,5,62.5,8.4L1832.9,2214.6z M1832.9,2214.6l-141.3-1039.9
			c20.7-2.8,41.8-5,62.7-6.6L1832.9,2214.6C1829.9,2214.8,1835.8,2214.2,1832.9,2214.6z M1832.9,2214.6
			C1829.8,2214.5,1836.1,2214.5,1832.9,2214.6L1817,1165.2c5.4-0.1,10.9-0.1,16.4-0.1c15.4,0,30.9,0.3,46.2,1L1832.9,2214.6z"/>
	</g>
</g>
</svg>
